<?xml version="1.0" standalone="no"?>
<!DOCTYPE svg PUBLIC "-//W3C//DTD SVG 20010904//EN"
 "http://www.w3.org/TR/2001/REC-SVG-20010904/DTD/svg10.dtd">
<svg version="1.0" xmlns="http://www.w3.org/2000/svg"
 width="1243.000000pt" height="718.000000pt" viewBox="0 0 1243.000000 718.000000"
 preserveAspectRatio="xMidYMid meet">
<metadata>
Created by potrace 1.16, written by Peter Selinger 2001-2019
</metadata>
<g transform="translate(0.000000,718.000000) scale(0.100000,-0.100000)"
fill="#000000" stroke="none">
<path d="M0 7025 c0 -89 4 -154 9 -151 5 3 12 -2 15 -11 6 -15 8 -15 16 -3 8
13 10 12 10 -2 0 -10 5 -18 11 -18 5 0 7 -5 4 -10 -4 -6 -2 -16 3 -23 6 -7 13
-43 17 -82 4 -38 13 -89 21 -113 8 -23 14 -66 14 -94 0 -28 3 -49 6 -45 3 3 1
117 -5 253 -7 153 -8 251 -2 257 11 11 16 -22 32 -200 7 -72 15 -137 20 -144
6 -10 21 -9 71 5 34 9 80 15 101 12 20 -2 37 -1 37 4 0 6 36 -2 68 -16 1 0
-11 -27 -28 -60 -31 -62 -37 -93 -20 -110 7 -7 6 -24 -5 -53 -8 -24 -15 -68
-15 -99 0 -46 6 -63 34 -106 45 -67 71 -90 131 -117 43 -19 47 -23 28 -30 -14
-5 -20 -16 -20 -34 -1 -14 -11 -37 -24 -51 l-23 -25 54 -51 55 -52 -37 -10
c-33 -8 -37 -12 -32 -33 7 -27 7 -27 -39 -8 -43 18 -50 19 -42 5 3 -5 15 -10
26 -10 10 0 19 -6 19 -14 0 -8 4 -16 9 -18 4 -1 11 -13 15 -25 5 -17 1 -26
-19 -39 -18 -12 -24 -22 -19 -36 4 -14 -3 -28 -26 -48 -21 -19 -27 -30 -18
-33 11 -4 10 -7 -1 -15 -11 -8 -10 -11 5 -15 11 -3 214 -9 452 -13 l433 -7
-31 52 c-17 28 -36 53 -41 56 -14 9 -11 44 8 76 14 24 15 33 5 49 -10 17 -10
20 3 20 8 0 15 7 15 15 0 15 -11 19 -40 16 -11 -1 -12 0 -3 6 18 12 63 101 63
123 0 10 -3 25 -6 34 -5 14 -8 14 -27 1 -15 -10 -24 -11 -33 -4 -15 12 -37 3
-29 -12 15 -23 -9 -28 -41 -8 -28 17 -43 20 -84 14 -42 -6 -52 -4 -71 14 -29
27 -44 26 -71 -1 -13 -13 -29 -22 -35 -20 -18 4 -16 -17 2 -25 9 -3 24 2 35
12 10 9 27 15 37 13 14 -3 17 -12 15 -46 -1 -24 2 -42 8 -42 5 0 10 -7 10 -15
0 -9 -6 -12 -16 -8 -9 3 -19 0 -24 -6 -5 -10 -10 -10 -21 1 -36 33 -56 38 -89
21 -24 -11 -29 -18 -19 -24 7 -4 11 -10 9 -12 -11 -9 -80 -15 -80 -7 0 5 10
10 22 12 20 3 17 7 -25 48 -26 25 -47 50 -47 55 0 6 28 17 63 24 34 7 99 28
145 47 45 19 89 34 98 34 8 0 26 11 39 25 29 28 33 79 10 112 -18 26 -177 117
-220 127 -27 6 -30 10 -30 44 1 44 12 81 32 104 14 16 18 15 59 -13 43 -29
109 -46 174 -44 25 0 44 10 67 33 40 41 53 40 53 -3 0 -19 -4 -35 -9 -35 -14
0 -33 -55 -29 -86 2 -20 9 -29 20 -29 19 0 51 -38 41 -49 -4 -3 5 -19 19 -34
33 -36 69 -108 62 -126 -3 -8 10 -31 29 -53 19 -21 36 -47 38 -58 5 -35 -12
-125 -24 -126 -7 -1 -16 -2 -22 -4 -5 -1 -16 -3 -22 -3 -7 -1 -12 -12 -12 -24
1 -17 2 -19 6 -5 2 9 11 17 20 17 12 0 13 -3 4 -14 -15 -17 -5 -41 24 -60 17
-11 24 -28 29 -70 8 -58 6 -73 -6 -68 -5 1 -8 -2 -8 -8 0 -5 4 -10 10 -10 18
0 -1 -28 -23 -34 -48 -12 1 -18 187 -23 138 -3 196 -2 196 6 0 6 9 11 19 11
23 0 37 16 19 23 -7 2 -11 7 -8 10 3 4 19 0 35 -9 16 -8 36 -12 44 -9 24 10
-46 44 -91 45 l-37 0 1 53 c1 28 -5 68 -12 87 -9 27 -10 48 -2 86 6 27 8 68 5
91 -8 60 0 74 34 64 31 -9 123 15 123 32 0 6 -19 7 -46 4 -51 -5 -79 12 -88
55 -3 13 -7 34 -10 48 -3 14 -24 38 -46 54 -41 28 -42 28 -141 21 l-99 -7 0
31 c0 25 -9 38 -51 71 -59 46 -96 51 -148 19 -27 -16 -36 -18 -42 -7 -6 9 -3
14 9 17 25 5 31 20 20 53 -11 31 -4 75 17 98 15 17 23 80 11 98 -9 15 11 82
25 82 5 0 9 -4 9 -9 0 -5 14 -8 31 -7 16 1 32 -1 35 -6 3 -4 -3 -8 -13 -8 -15
0 -16 -2 -3 -10 22 -14 30 -12 30 6 0 31 25 7 33 -32 12 -59 28 -67 21 -10
l-7 49 52 -7 c28 -4 82 -16 119 -28 37 -12 90 -22 119 -22 52 -1 52 -1 37 22
-8 12 -10 22 -4 22 5 0 10 9 10 19 0 11 5 23 11 27 6 4 9 20 5 38 l-6 31 15
-25 c8 -14 15 -34 15 -45 0 -11 9 -31 20 -45 28 -36 25 -41 -17 -23 l-38 15
19 -21 c11 -12 21 -19 24 -16 3 2 12 0 22 -5 15 -8 18 -2 24 50 7 58 8 60 36
60 27 0 30 -3 30 -30 0 -28 3 -30 34 -30 32 0 35 3 38 33 3 28 6 32 31 29 25
-3 27 0 27 32 0 32 -3 35 -32 38 l-33 3 -3 68 -3 67 -34 0 c-32 0 -34 2 -37
38 -3 34 -6 37 -35 40 -30 3 -49 22 -22 22 5 0 7 6 3 13 -6 10 -4 10 7 0 7 -7
31 -13 52 -13 22 0 45 -6 51 -14 6 -7 26 -16 44 -20 29 -5 32 -3 32 20 0 21 3
24 13 15 8 -6 17 -8 20 -4 4 3 28 6 54 6 27 0 53 3 59 8 18 14 341 13 409 -1
33 -7 67 -15 75 -18 8 -3 33 -7 55 -8 22 -1 112 -5 200 -9 149 -7 454 -8 710
-3 61 2 124 -1 140 -5 83 -22 197 -28 642 -32 267 -3 488 -7 492 -9 12 -8 174
-21 246 -21 290 3 487 3 524 1 25 -1 74 4 110 11 88 17 183 16 316 -3 64 -9
174 -15 263 -14 l152 1 1 -188 c0 -103 4 -208 8 -233 5 -25 9 -39 10 -32 0 7
5 10 11 7 7 -4 10 56 10 173 0 99 3 200 6 226 l7 46 331 -4 c382 -5 696 -18
712 -28 6 -4 47 -8 90 -8 44 -1 102 -3 130 -6 l52 -6 9 -222 10 -221 1 210 c1
116 6 216 11 224 10 16 31 6 31 -15 0 -11 5 -12 18 -6 9 5 60 12 112 16 52 3
107 8 121 9 14 2 57 0 95 -5 148 -19 790 -34 809 -18 13 11 287 16 303 6 5 -3
60 -6 123 -7 172 -1 307 -16 369 -39 93 -35 210 -51 287 -40 37 5 131 7 208 3
107 -4 159 -2 220 10 64 12 140 15 390 12 171 -2 353 -8 405 -14 52 -7 130
-12 173 -13 51 0 82 -5 91 -14 8 -7 16 -10 20 -7 3 3 13 0 22 -8 9 -7 30 -14
47 -15 17 -2 41 -5 54 -9 16 -4 23 -1 23 10 0 28 19 15 62 -42 23 -32 77 -93
120 -136 43 -43 78 -83 78 -89 0 -7 -5 -6 -15 2 -12 10 -15 10 -15 -4 0 -9 -4
-16 -9 -16 -5 0 -16 -6 -23 -13 -12 -12 -101 -47 -120 -47 -19 0 -7 59 15 77
13 10 22 24 19 31 -3 10 -7 10 -18 1 -11 -9 -14 -7 -14 14 0 14 -3 28 -7 30
-5 3 -332 8 -728 12 -396 4 -722 8 -725 10 -3 2 -284 8 -625 14 -341 6 -719
13 -840 16 -121 2 -348 7 -505 10 -157 3 -342 8 -412 11 l-128 6 0 -91 c0 -49
4 -93 10 -96 6 -3 10 -1 10 6 0 10 15 9 70 -5 8 -3 19 -5 23 -5 5 -1 7 -16 5
-33 -2 -28 -8 -34 -31 -36 -16 -2 -41 1 -56 6 l-29 10 -6 -941 c-3 -518 -5
-1026 -3 -1129 l2 -188 27 -11 c15 -6 51 -10 80 -9 29 1 70 2 91 1 l37 -1 0
-50 c0 -47 2 -50 25 -50 21 0 25 5 25 29 0 16 -6 31 -12 34 -9 3 -4 13 14 30
15 13 24 27 21 30 -10 11 21 32 46 32 13 0 26 -6 29 -14 3 -10 -1 -12 -17 -8
-11 3 -21 1 -21 -4 0 -5 55 -9 123 -8 77 0 115 4 102 9 -19 8 -19 9 1 9 12 1
24 7 27 15 6 14 -31 26 -82 26 l-26 0 3 225 3 224 33 -1 c18 -1 38 2 44 6 6 4
19 -5 28 -19 l17 -27 11 24 c13 27 36 35 47 16 5 -7 9 -110 9 -229 0 -189 -2
-218 -16 -223 -9 -3 -20 -4 -25 0 -17 10 -31 -7 -17 -23 10 -12 9 -18 -7 -29
-18 -13 -17 -14 8 -12 18 2 26 8 24 18 -2 15 1 16 46 10 19 -2 18 -3 -8 -10
l-30 -8 37 -1 c20 0 40 4 44 10 3 6 9 7 13 3 18 -25 78 -33 171 -23 52 5 131
7 175 3 44 -4 186 -6 315 -5 290 4 468 4 768 2 l232 -1 0 -50 c0 -49 1 -50 29
-50 28 0 30 2 33 48 l3 47 480 3 c467 3 605 -1 605 -18 0 -4 -10 -11 -22 -15
-19 -6 -20 -8 -6 -12 19 -5 33 -33 16 -33 -6 0 -8 -3 -4 -7 9 -9 238 -14 279
-7 15 3 27 9 27 14 0 12 -63 19 -74 9 -6 -5 -18 -9 -28 -9 -24 0 -23 29 1 77
17 33 21 75 31 308 24 597 41 859 56 889 8 16 17 55 20 85 4 31 12 65 19 76 7
12 15 30 18 40 3 11 5 -44 4 -123 -4 -236 11 -117 23 188 14 377 27 636 36
721 l7 69 52 24 c60 27 125 41 154 31 11 -3 22 -19 26 -37 6 -26 3 -34 -16
-49 -13 -10 -24 -23 -24 -29 0 -6 -6 -14 -13 -19 -8 -5 -15 -29 -15 -58 -2
-66 -27 -61 -27 5 0 44 0 45 -20 27 -17 -15 -20 -31 -20 -96 0 -106 20 -146
75 -151 53 -5 85 1 85 18 0 8 5 14 10 14 6 0 10 -4 10 -9 0 -5 9 -7 20 -4 11
3 26 1 33 -5 18 -15 92 -20 92 -5 0 19 15 28 15 8 0 -13 3 -15 13 -6 8 6 17 8
20 4 4 -3 7 -1 7 6 0 7 6 11 14 8 10 -4 12 0 8 15 -2 11 -8 16 -11 11 -8 -11
-34 -10 -44 2 -6 7 -10 6 -13 -2 -3 -7 -12 -9 -21 -6 -12 5 -14 1 -9 -18 3
-13 3 -18 0 -11 -3 7 -26 12 -58 12 -29 0 -57 5 -64 12 -7 7 -12 8 -12 4 0 -5
-7 -3 -15 4 -12 10 -15 10 -15 -1 0 -12 -2 -12 -9 0 -6 9 -11 10 -15 2 -5 -8
-12 -7 -22 4 -12 11 -14 33 -9 107 4 51 10 96 14 100 4 5 26 9 48 10 40 1 42
2 36 30 -4 22 -2 28 12 28 17 0 17 1 0 20 -20 23 -14 50 15 57 11 3 17 9 14
14 -3 5 -16 6 -28 3 -19 -4 -41 12 -126 93 -117 112 -189 207 -164 217 8 3 24
1 35 -4 10 -6 49 -13 87 -17 37 -3 72 -9 77 -14 6 -4 20 -8 30 -7 11 1 58 -9
105 -22 47 -12 104 -26 127 -30 l43 -7 -1 186 -1 186 -186 0 c-103 0 -191 2
-196 4 -24 11 -310 16 -463 9 -36 -2 -65 1 -67 7 -3 5 -5 4 -5 -3 -1 -8 -6
-10 -13 -6 -12 8 -76 12 -184 14 -61 1 -77 -2 -86 -15 -5 -6 -8 -4 -8 5 0 13
-27 15 -178 17 -97 1 -194 3 -214 5 -36 3 -52 -6 -25 -15 6 -2 3 -2 -8 1 -11
2 -76 4 -144 4 -74 0 -118 4 -110 9 10 6 8 9 -9 9 -13 0 -21 -3 -19 -7 6 -10
-56 -9 -71 1 -6 4 -91 9 -189 11 -98 2 -239 6 -313 10 -74 3 -211 8 -305 10
-93 3 -216 7 -272 9 -76 4 -103 2 -103 -7 0 -8 -3 -8 -8 -2 -4 6 -79 11 -181
12 -117 2 -187 7 -210 16 -20 7 -47 12 -61 11 -84 -9 -246 -10 -310 -3 -41 4
-136 10 -210 13 -74 3 -200 8 -280 11 -80 4 -250 7 -377 7 -131 0 -233 5 -233
10 0 5 -8 4 -19 -1 -11 -7 -30 -7 -50 -1 -19 5 -31 5 -31 -1 0 -5 -11 -9 -25
-9 -14 0 -25 5 -25 10 0 6 -11 10 -25 10 -14 0 -25 -4 -25 -9 0 -6 -12 -6 -28
-2 -15 5 -167 9 -337 10 -399 3 -657 8 -770 15 -49 4 -315 9 -590 11 -275 3
-563 8 -640 11 -77 3 -175 6 -217 7 -43 0 -78 5 -78 9 0 4 -10 4 -22 -1 -13
-4 -32 -6 -43 -3 -11 3 -1020 7 -2242 9 l-2223 4 0 -156z m1590 -57 c0 -10 3
-9 9 1 5 8 16 11 30 6 17 -5 20 -12 15 -27 -5 -18 -3 -20 15 -15 12 3 19 1 15
-4 -3 -6 0 -16 6 -24 7 -8 9 -15 5 -15 -4 0 -2 -7 5 -15 7 -9 19 -14 25 -11 7
2 17 -6 24 -20 6 -13 7 -24 2 -24 -5 0 -11 7 -15 15 -3 8 -12 12 -21 9 -8 -3
-12 -11 -8 -17 4 -6 0 -8 -10 -4 -10 3 -17 2 -17 -3 0 -6 6 -10 13 -11 10 0
10 -2 0 -6 -18 -7 -16 -23 3 -23 10 0 14 -6 11 -14 -4 -10 -1 -13 8 -10 9 4
13 -1 12 -15 -1 -12 -5 -21 -10 -21 -5 0 -6 -7 -3 -16 3 -8 2 -12 -4 -9 -6 3
-10 13 -10 21 0 8 -6 14 -13 14 -7 0 -17 8 -23 18 -6 9 -48 32 -92 51 -45 19
-78 39 -75 44 3 6 1 7 -6 3 -11 -7 -141 47 -141 58 0 2 8 12 17 22 13 13 14
19 5 22 -6 2 -12 8 -12 12 0 5 40 7 89 5 55 -3 92 -1 96 5 9 14 55 12 55 -2z
m-356 -322 c-3 -9 2 -16 13 -18 15 -3 9 -13 -31 -52 l-48 -48 -77 5 c-42 4
-77 6 -77 7 -1 0 -14 16 -29 36 -19 25 -24 39 -17 46 6 6 64 13 129 15 65 2
120 9 121 14 2 5 8 9 13 9 4 0 6 -6 3 -14z m7483 -117 c9 -9 20 -9 40 -2 15 6
60 9 98 8 39 -1 115 -2 169 -3 55 -1 96 -5 93 -9 -10 -10 14 -34 27 -26 6 4 5
0 -2 -9 -10 -13 -10 -18 -1 -24 8 -4 9 -3 5 5 -4 6 0 14 8 17 9 3 13 11 10 18
-3 6 2 2 12 -9 15 -18 16 -18 10 -2 -5 17 0 18 47 16 28 -1 55 -7 59 -13 5 -8
8 -7 8 1 0 9 7 10 25 3 18 -7 25 -6 25 3 0 8 4 7 10 -3 9 -13 10 -13 10 0 0 9
3 11 8 5 9 -13 32 -17 32 -6 0 5 15 9 33 9 17 1 46 3 62 5 17 3 21 2 11 0 -11
-3 -30 -12 -43 -20 -19 -12 -23 -13 -23 -2 0 11 -2 11 -10 -1 -9 -13 -10 -13
-10 0 0 13 -1 13 -10 0 -5 -8 -10 -18 -10 -21 0 -8 45 -3 62 7 9 5 8 1 -2 -11
-14 -17 -14 -18 6 -7 12 6 25 8 29 4 5 -4 4 -1 0 7 -6 11 -4 13 8 8 10 -4 17
-1 17 6 0 9 2 9 9 -1 5 -8 19 -11 40 -7 25 4 31 2 25 -7 -6 -10 -4 -11 7 0 16
15 33 16 23 0 -5 -7 -3 -8 5 -4 7 5 10 15 6 23 -4 13 -3 14 10 3 12 -10 15
-10 16 1 0 11 2 11 6 1 4 -10 8 -10 20 -1 11 10 14 10 11 -1 -2 -8 5 -14 15
-13 9 0 29 1 43 2 14 0 23 5 20 9 -3 5 -19 8 -36 7 -16 -1 -30 2 -30 7 0 10
21 11 220 9 211 -2 216 -3 212 -28 -2 -17 2 -20 35 -17 21 1 48 -4 60 -12 12
-8 29 -14 38 -14 8 0 15 -3 15 -7 0 -5 -24 -10 -52 -12 -75 -5 -584 -2 -632 4
-23 3 -110 5 -193 5 -111 0 -153 4 -153 12 0 9 -3 9 -12 0 -16 -16 -50 -15
-67 1 -8 7 -11 7 -8 1 5 -8 -15 -11 -68 -11 -63 1 -75 4 -75 18 0 28 23 40 51
25 22 -11 25 -11 26 6 1 10 -5 18 -13 18 -10 0 -12 5 -8 13 5 8 3 8 -9 -2 -9
-7 -26 -11 -37 -8 -11 3 -18 1 -14 -4 4 -8 -7 -13 -26 -11 -9 1 -9 -37 0 -43
4 -2 7 3 6 12 0 9 6 18 14 20 11 3 12 2 2 -5 -7 -5 -10 -15 -7 -24 5 -11 -3
-15 -35 -16 -23 -1 -39 1 -37 6 3 4 -29 6 -70 4 -61 -2 -74 0 -70 11 3 8 0 20
-6 26 -8 8 -8 11 1 11 10 0 16 -12 14 -31 -1 -3 5 -6 12 -6 9 0 13 10 11 24
-2 25 -15 45 -15 24 0 -7 -5 -9 -12 -5 -7 4 -30 9 -53 11 -22 2 -52 5 -67 7
-16 1 -37 3 -48 4 -11 1 -20 7 -20 12 0 14 73 13 87 -1z m1978 -38 c3 -6 -10
-9 -33 -8 -35 2 -38 1 -28 -15 11 -19 46 -25 46 -8 0 6 9 10 21 10 37 0 -3
-28 -47 -33 -31 -3 -28 -4 13 -4 29 0 50 4 47 8 -5 9 30 4 48 -7 8 -5 10 4 5
32 -3 21 -3 35 -1 29 2 -5 27 -8 55 -6 39 2 53 -1 63 -15 10 -13 29 -18 90
-19 42 -1 76 2 76 7 0 4 5 8 10 8 6 0 10 -7 10 -15 0 -13 11 -16 58 -14 75 2
136 0 131 -5 -2 -3 -31 -8 -64 -11 -33 -4 -63 -9 -66 -11 -8 -5 -215 -5 -438
0 -132 3 -176 7 -182 18 -13 20 -11 28 9 29 14 0 14 2 -3 9 -17 7 -17 9 -2 9
9 1 17 5 17 10 0 12 157 14 165 2z m-1900 -100 c127 -6 509 -13 850 -16 341
-3 628 -9 638 -11 14 -5 17 -14 15 -42 l-3 -37 -155 0 c-316 0 -1551 15 -1715
21 -93 4 -172 11 -176 15 -3 5 -3 25 -1 44 l4 35 157 0 c86 0 260 -4 386 -9z
m2335 -43 c151 -6 300 -11 330 -10 51 1 56 -1 68 -25 6 -15 12 -31 12 -36 0
-14 -1037 -4 -1051 10 -7 7 -8 24 -4 42 l7 31 181 0 c100 0 306 -6 457 -12z
m-922 -190 l3 -48 -91 0 -91 0 3 32 c3 32 4 32 48 30 25 -2 56 1 70 7 21 8 13
10 -42 10 -37 1 -70 6 -73 11 -5 7 22 10 82 8 l88 -3 3 -47z m440 -1 l3 -47
-91 0 -91 0 5 48 c2 26 5 48 5 50 1 2 38 1 84 -1 l82 -4 3 -46z m216 1 c4 -23
3 -45 -1 -49 -5 -5 -48 -6 -96 -2 -71 5 -87 9 -82 20 3 8 5 28 5 44 l0 29 84
0 83 0 7 -42z m218 2 c2 -23 1 -46 -3 -51 -4 -7 -38 -9 -90 -6 -70 3 -84 7
-83 21 0 9 1 30 2 46 l2 30 84 0 84 0 4 -40z m-3035 -666 l1 -679 34 0 33 0 7
639 c3 351 9 653 12 670 5 24 11 31 30 32 19 1 25 -4 30 -28 11 -55 7 -526 -4
-533 -8 -5 -8 -11 0 -20 17 -21 18 -794 1 -805 -8 -4 -51 -8 -96 -9 -71 -1
-84 1 -90 16 -9 25 -1 1375 9 1391 29 47 31 -2 33 -674z m1707 278 c-3 -196
-9 -505 -13 -687 l-6 -330 -75 -3 c-59 -1 -80 2 -97 15 -21 17 -22 23 -16 115
3 55 10 95 15 92 5 -3 6 -30 2 -60 l-6 -54 42 0 c42 0 42 0 36 -31 -5 -25 -3
-30 12 -27 16 3 18 33 24 383 4 209 11 505 16 657 10 293 14 318 54 297 18
-10 19 -20 12 -367z m196 311 c2 -2 -2 -8 -10 -14 -13 -8 -13 -10 0 -19 8 -5
21 -10 28 -10 9 0 12 -30 11 -117 0 -75 -4 -111 -9 -98 -5 11 -9 39 -9 63 -1
23 -5 42 -10 42 -10 0 -17 -59 -29 -230 -5 -74 -11 -105 -19 -104 -45 4 -43
-2 -43 142 0 178 12 348 21 307 7 -30 7 -30 8 -3 2 45 11 59 35 52 11 -4 23
-8 26 -11z m-886 -9 c13 -5 16 -24 16 -104 0 -92 -1 -98 -19 -93 -12 3 -22 16
-24 32 -3 16 -4 11 -4 -14 0 -22 -3 -48 -7 -58 -7 -14 -5 -16 10 -10 12 4 15
3 10 -5 -12 -19 -36 -14 -36 7 0 11 -4 23 -10 26 -6 3 -10 52 -10 110 0 90 2
104 18 108 27 7 39 7 56 1z m1364 -64 c2 -36 0 -85 -3 -108 l-7 -44 -20 41
c-22 46 -32 46 -34 0 -2 -36 -8 -43 -29 -36 -12 5 -15 25 -15 106 0 110 1 111
65 108 l40 -2 3 -65z m1032 -38 c0 -89 -8 -354 -32 -1082 -3 -82 -2 -85 20
-88 12 -2 22 -7 22 -11 0 -20 -30 -31 -84 -31 -73 0 -96 17 -96 71 0 31 4 38
23 41 27 4 26 -4 51 698 9 256 18 474 21 486 3 16 13 21 40 22 l35 1 0 -107z
m-2161 -4 c-1 -57 -3 -94 -6 -83 -6 24 -23 44 -23 27 0 -7 -7 -12 -15 -12 -8
0 -15 -6 -15 -14 0 -16 -18 -31 -26 -23 -8 8 -16 177 -10 193 3 9 22 14 51 14
l45 0 -1 -102z m2282 75 c8 -20 8 -121 -1 -358 -7 -181 -10 -357 -8 -390 3
-49 5 -41 7 40 2 55 7 143 11 195 8 86 3 -418 -6 -609 -4 -108 -23 -116 -26
-11 l-2 85 -3 -77 c-3 -67 -7 -79 -25 -89 l-21 -11 6 143 c4 79 10 242 13 362
5 160 11 220 20 228 11 9 11 15 1 32 -10 17 -11 71 -4 255 6 127 14 232 19
232 5 0 13 -12 19 -27z m-753 -20 l32 -6 -1 -76 c-1 -42 -5 -87 -9 -101 l-8
-25 -1 25 c-2 31 -23 74 -35 71 -5 -2 -13 3 -17 11 -7 10 -10 8 -15 -9 -9 -32
-34 -38 -34 -8 0 14 6 25 13 25 8 0 7 4 -3 10 -13 8 -13 10 0 10 11 0 11 3 2
12 -15 15 -16 42 -1 32 9 -5 10 1 5 21 -6 25 -5 27 16 21 13 -4 38 -9 56 -13z
m-9240 -69 c31 -20 28 -49 -8 -76 -16 -12 -30 -28 -30 -35 0 -7 -3 -12 -7 -12
-5 1 -17 0 -28 -1 -14 -1 -11 -4 12 -11 24 -7 30 -13 26 -29 -3 -12 1 -22 11
-26 9 -3 16 -10 16 -16 0 -5 7 -16 15 -24 20 -20 19 -30 -5 -54 -11 -11 -17
-26 -14 -34 7 -18 -62 -27 -77 -10 -7 8 -6 13 3 17 9 3 6 10 -10 23 -19 15
-23 30 -25 76 -1 39 -6 58 -14 58 -15 0 -17 16 -4 24 5 3 16 40 26 81 l16 75
37 -6 c20 -3 47 -12 60 -20z m9650 -20 l42 -7 0 -123 c0 -125 -4 -137 -37
-116 -8 5 -9 13 -3 22 14 22 12 40 -4 40 -8 0 -16 7 -18 16 -2 13 -8 11 -33
-10 -21 -18 -31 -22 -37 -13 -9 15 -10 84 -1 155 5 48 8 53 27 48 12 -3 40 -8
64 -12z m-2454 -50 c25 -1 49 2 52 7 11 19 20 8 16 -21 -4 -29 -22 -43 -22
-18 0 8 -3 8 -9 3 -10 -10 -14 -128 -12 -287 1 -71 4 -88 16 -88 11 0 15 11
15 37 0 20 3 33 7 30 11 -12 6 -768 -5 -779 -16 -16 -144 -10 -161 6 -10 11
-13 60 -12 232 2 273 8 344 30 345 13 1 13 2 -1 6 -13 3 -18 15 -19 46 0 23
-3 64 -5 90 -4 35 -1 55 11 74 12 18 14 28 6 36 -7 7 -11 63 -11 152 0 136 1
141 23 150 17 8 23 7 28 -5 4 -10 21 -15 53 -16z m-451 -10 c4 11 19 16 47 16
36 0 40 -2 40 -25 0 -17 -6 -25 -17 -26 -16 -1 -16 -2 -2 -6 14 -3 17 -21 18
-115 1 -71 -2 -115 -10 -124 -9 -11 -9 -17 0 -28 8 -9 12 -47 11 -98 0 -46 0
-217 0 -382 0 -210 -3 -303 -11 -312 -8 -10 -32 -14 -78 -13 -89 2 -101 9
-101 64 0 45 0 45 38 47 36 1 36 1 5 5 -18 2 -33 8 -33 14 -3 86 0 303 4 307
3 3 3 16 0 28 -5 21 -2 24 22 25 l29 2 -27 4 c-20 3 -28 10 -28 24 0 14 7 19
28 20 l27 2 -27 4 c-20 3 -28 10 -28 24 0 16 5 18 24 13 14 -3 33 -1 43 5 10
6 12 11 6 11 -9 0 -13 18 -13 55 0 45 3 55 18 56 16 1 16 2 0 6 -10 2 -18 13
-18 23 0 11 -11 22 -30 29 -38 13 -38 25 1 53 24 18 29 27 23 48 -3 14 -6 51
-5 84 2 49 0 58 -13 53 -13 -5 -16 1 -15 26 1 30 1 31 9 7 4 -14 9 -23 10 -20
4 8 10 52 11 80 2 38 11 45 24 20 10 -19 13 -20 18 -6z m308 -2 c3 -97 -4
-268 -11 -277 -5 -6 -5 -17 0 -25 10 -16 14 -200 11 -570 -1 -163 -5 -226 -14
-232 -21 -13 -153 -9 -165 5 -15 18 -9 784 6 799 8 8 7 17 -2 32 -9 15 -11 57
-8 148 5 144 -5 132 109 135 63 2 73 0 74 -15z m439 -481 l0 -159 -32 -11
c-18 -5 -48 -12 -65 -16 -48 -10 -40 -23 13 -23 75 0 79 -9 82 -202 1 -91 7
-169 12 -174 7 -7 10 15 11 65 0 40 4 94 8 119 8 41 9 37 10 -37 1 -89 7 -97
69 -93 15 1 46 2 70 1 40 -1 42 -3 42 -30 0 -17 5 -33 10 -36 6 -4 10 8 10 29
l0 36 51 0 c40 0 50 3 46 14 -4 10 5 15 34 18 41 4 47 0 27 -20 -9 -9 -6 -12
15 -12 22 0 27 -5 33 -37 6 -31 3 -39 -16 -55 -30 -24 -127 -25 -169 -1 -29
17 -31 17 -48 0 -14 -14 -15 -19 -5 -26 9 -5 13 -30 13 -77 -1 -38 -2 -175 -4
-304 l-2 -236 -215 2 c-180 1 -214 3 -210 15 3 8 5 143 5 301 0 266 1 288 18
300 18 13 18 14 -2 32 -11 10 -19 22 -16 26 2 4 7 171 10 371 4 200 9 367 11
371 3 4 45 8 95 8 l89 0 0 -159z m371 -171 c11 -6 30 -29 44 -50 23 -36 25
-50 25 -150 0 -106 -1 -110 -21 -110 -12 0 -30 10 -40 22 -11 11 -22 18 -27
13 -4 -4 -1 -10 6 -12 19 -7 14 -23 -7 -23 -15 0 -20 10 -25 60 -8 73 3 260
16 260 5 0 18 -5 29 -10z m1605 -132 c-4 -79 -10 -146 -12 -150 -3 -5 -32 -8
-65 -8 -33 0 -69 -5 -81 -11 -11 -6 -21 -9 -22 -7 -1 2 0 71 3 153 l6 150 75
6 c41 3 81 6 89 7 12 2 13 -22 7 -140z m118 136 c9 -3 13 -11 10 -16 -4 -6 -1
-14 7 -19 7 -4 18 -25 24 -45 14 -50 32 -54 41 -9 10 57 16 33 8 -36 -5 -46
-9 -58 -15 -44 -5 14 -8 15 -8 5 -1 -9 3 -20 8 -25 6 -6 7 -30 4 -55 -5 -34
-8 -40 -14 -25 -7 19 -8 18 -8 -2 -1 -13 -6 -23 -11 -23 -7 0 -9 25 -4 75 4
41 4 75 1 75 -2 0 -13 -31 -22 -70 l-17 -70 -45 0 -46 0 5 136 c6 140 10 153
50 154 9 0 23 -3 32 -6z m-329 -16 c2 -7 1 -78 -3 -158 l-7 -145 -43 -3 -43
-3 3 65 c3 60 5 66 25 66 12 0 25 5 28 10 3 6 -5 10 -19 10 -24 0 -25 2 -28
81 -2 44 -1 83 1 85 10 10 82 3 86 -8z m-986 -382 c3 -20 16 7 18 37 4 74 12
162 14 167 2 3 5 -31 8 -75 6 -78 7 -80 34 -83 26 -3 27 -6 27 -57 l0 -54 -42
-9 -43 -10 43 -1 43 -1 -3 -72 -3 -73 -85 0 -85 0 -3 -75 -2 -75 20 33 c25 40
40 41 40 2 0 -19 5 -30 14 -30 9 0 12 7 9 18 -5 22 39 65 64 60 16 -3 18 -17
21 -158 2 -85 0 -174 -3 -197 l-6 -43 -79 0 c-43 0 -81 -4 -84 -9 -3 -4 7 -8
22 -9 105 -2 132 -4 132 -12 0 -5 34 -8 76 -8 41 0 78 -3 81 -6 4 -3 -88 -5
-203 -5 -115 1 -198 4 -184 6 27 5 50 21 50 33 0 4 -46 8 -101 8 -56 1 -105 5
-108 9 -3 4 -4 141 -1 303 l5 295 95 0 95 0 0 -70 0 -70 -45 3 c-25 2 -64 0
-87 -3 -34 -5 -43 -10 -43 -26 0 -12 7 -19 18 -19 27 0 42 -20 42 -57 0 -18 5
-33 10 -33 6 0 10 -33 10 -80 l0 -80 36 40 c20 22 40 40 45 40 5 0 10 -54 11
-120 3 -103 5 -118 18 -110 19 12 22 113 9 254 -5 54 -6 119 -2 145 5 25 6 79
3 119 l-5 72 53 0 c29 0 51 4 48 9 -3 4 -23 7 -45 6 -45 -3 -52 9 -42 71 5 33
11 39 32 42 23 3 27 9 33 49 3 25 7 69 8 97 1 28 5 -1 8 -64 4 -63 8 -119 9
-124z m329 5 c5 -66 -12 -78 -108 -79 -88 0 -93 4 -83 78 l6 39 81 3 c44 2 86
3 91 3 6 -1 11 -21 13 -44z m220 6 c2 -23 -3 -48 -13 -63 -14 -22 -21 -24 -80
-21 -79 4 -95 16 -95 73 l0 43 58 4 c31 2 73 3 92 3 33 -1 35 -3 38 -39z m212
-5 c0 -68 -19 -83 -96 -80 -70 4 -93 23 -94 80 0 36 1 37 43 41 23 2 66 4 95
5 l52 2 0 -48z m220 0 c0 -69 -18 -83 -99 -77 -34 2 -69 9 -77 15 -13 11 -21
90 -10 101 3 2 45 5 95 7 l91 3 0 -49z m210 0 c0 -70 -20 -86 -97 -77 -32 4
-64 12 -70 17 -7 6 -13 30 -13 53 0 51 2 52 108 54 l72 1 0 -48z m210 0 c0
-67 -22 -84 -98 -76 -31 4 -63 11 -69 17 -7 5 -13 29 -13 52 0 25 5 45 13 48
6 3 47 6 90 6 l77 1 0 -48z m316 -139 c-3 -71 -8 -200 -12 -288 -6 -170 -19
-265 -36 -265 -7 0 -8 20 -5 58 9 82 11 231 3 239 -10 10 -7 35 4 28 6 -4 10
22 10 69 0 69 -2 76 -20 76 -18 0 -20 7 -20 60 0 54 2 60 21 60 15 0 19 -5 15
-15 -3 -8 -1 -15 4 -15 6 0 10 24 10 53 0 30 3 57 7 60 21 22 25 -2 19 -120z
m-3379 44 c6 -4 10 -34 9 -69 -1 -53 -4 -63 -18 -62 -10 0 -56 1 -103 2 l-85
2 0 63 c0 35 3 67 7 71 9 8 175 2 190 -7z m220 -1 c3 -3 4 -83 4 -348 l-1
-256 -41 -7 c-22 -4 -65 -4 -95 0 -56 7 -64 17 -44 55 5 10 12 62 15 114 5 74
3 96 -7 96 -9 1 -8 4 3 10 10 6 16 26 18 57 3 75 19 123 40 123 10 0 23 -10
28 -22 l11 -23 12 27 c7 15 20 29 29 31 9 3 -23 5 -71 6 l-88 1 0 69 c0 46 4
71 13 74 10 4 168 -3 174 -7z m214 5 c9 -1 17 -85 12 -115 -5 -24 -8 -25 -99
-28 l-94 -3 0 72 c0 39 4 73 10 75 8 2 146 2 171 -1z m223 -71 c0 -36 -2 -172
-4 -302 -4 -230 -5 -237 -25 -240 -37 -7 -43 0 -35 40 5 20 11 102 15 182 3
80 10 163 15 185 11 49 -1 65 -46 65 -39 0 -42 -8 -14 -43 23 -28 25 -95 13
-316 l-6 -122 -57 2 -57 2 9 46 c5 25 8 161 8 301 -1 140 -1 259 -1 263 1 4
43 6 94 5 l92 -3 -1 -65z m671 -5 c0 -65 -1 -69 -25 -75 -17 -4 -21 -8 -12
-14 6 -4 17 -4 24 0 8 5 10 -45 5 -208 -5 -159 -4 -217 5 -226 9 -9 8 -12 -7
-13 -34 -2 -190 3 -193 5 -8 8 -13 337 -7 460 l7 147 102 -3 101 -3 0 -70z
m665 5 l0 -70 -94 0 c-66 0 -96 -4 -99 -12 -3 -7 -6 21 -6 63 -1 42 2 79 6 82
3 4 48 7 100 7 l93 0 0 -70z m212 63 c2 -5 2 -36 0 -70 l-4 -63 -94 0 -94 0 0
63 c0 35 3 67 7 70 9 10 181 9 185 0z m218 -63 l0 -70 -95 0 -95 0 0 70 0 70
95 0 95 0 0 -70z m215 0 l0 -65 -89 -3 c-49 -2 -92 1 -96 5 -4 4 -5 36 -2 71
l4 63 92 -3 91 -3 0 -65z m210 60 c3 -5 3 -37 -1 -70 l-7 -60 -88 0 -89 0 0
63 c0 35 3 67 7 70 10 11 171 8 178 -3z m213 -57 l-3 -68 -92 -3 -93 -3 0 64
c0 35 3 67 7 70 3 4 46 7 95 7 l89 0 -3 -67z m210 1 l3 -61 -52 -6 c-28 -4
-71 -4 -95 0 -48 6 -49 7 -38 87 l7 47 86 -3 86 -3 3 -61z"/>
<path d="M9070 4769 l-25 -19 22 -6 c21 -6 22 -10 17 -78 -3 -39 -9 -72 -15
-74 -12 -5 -12 -39 1 -47 7 -5 9 -72 4 -207 -6 -169 -5 -200 7 -196 11 4 14
33 14 139 0 358 4 459 20 459 21 0 19 27 -3 39 -13 7 -24 4 -42 -10z"/>
<path d="M2890 6884 c-111 -22 -235 -86 -313 -162 -218 -213 -236 -598 -39
-864 148 -200 418 -311 642 -264 185 39 322 147 404 320 53 110 71 204 63 326
-8 108 -26 166 -88 289 -80 160 -213 276 -379 331 -64 21 -232 35 -290 24z
m280 -164 c177 -76 298 -209 341 -373 22 -84 25 -210 5 -283 -36 -134 -140
-259 -263 -316 -59 -27 -82 -32 -170 -36 -123 -5 -206 16 -298 76 -206 133
-308 387 -249 616 40 155 171 285 335 331 82 22 229 15 299 -15z"/>
<path d="M2915 6666 c-80 -37 -126 -103 -140 -201 -5 -28 -12 -45 -21 -45 -29
0 -97 -76 -134 -150 -20 -41 -46 -90 -56 -107 -17 -30 -18 -35 -4 -60 26 -47
76 -73 138 -73 l54 0 63 -68 c89 -96 143 -121 276 -129 82 -4 112 -2 141 10
52 22 110 70 148 123 17 24 44 51 59 59 16 8 34 27 40 43 11 25 8 34 -22 88
-19 32 -47 71 -61 86 -15 15 -33 48 -39 75 -11 43 -15 48 -39 45 -25 -2 -26 0
-33 60 -15 123 -60 191 -160 239 -76 37 -140 38 -210 5z m294 -210 c22 -14 48
-37 57 -51 36 -56 -30 -172 -125 -219 -108 -54 -215 -35 -291 51 -22 25 -37
49 -34 54 3 5 25 9 50 9 102 0 197 56 251 148 28 47 30 47 92 8z m137 -152 c5
-32 13 -50 31 -61 13 -9 35 -38 48 -64 14 -26 29 -50 35 -54 19 -12 11 -64
-13 -79 -36 -24 -125 -30 -177 -12 -25 9 -58 16 -74 16 -25 0 -27 -3 -22 -25
5 -21 2 -26 -21 -31 -16 -4 -38 -15 -49 -26 -22 -19 -22 -19 -48 7 -21 21 -24
30 -16 40 13 16 5 35 -14 35 -8 0 -12 13 -12 35 1 31 4 35 28 35 82 0 189 74
233 161 20 39 44 69 56 69 4 0 11 -21 15 -46z m-464 -285 c28 -7 48 -5 78 7
45 18 64 12 34 -11 -19 -15 -19 -16 0 -28 59 -38 71 -54 61 -83 -22 -62 -109
-36 -212 61 -48 45 -55 56 -43 65 8 5 22 7 30 4 8 -4 32 -10 52 -15z m403 -9
c28 -7 57 -15 65 -17 21 -6 -66 -84 -124 -112 -57 -26 -98 -27 -121 -1 -37 41
1 84 80 92 30 3 32 8 19 42 -6 16 -4 18 12 14 10 -3 42 -11 69 -18z"/>
<path d="M3795 6763 c-3 -27 -8 -63 -11 -81 -6 -36 16 -53 41 -32 9 7 15 8 15
2 0 -19 34 -24 47 -6 7 10 13 13 13 6 0 -20 49 -26 69 -8 16 15 19 15 31 1 15
-18 51 -20 68 -3 13 13 16 77 4 94 -14 21 -45 25 -70 8 -23 -15 -26 -15 -34 0
-9 16 -34 21 -62 10 -18 -7 -21 -45 -5 -61 7 -7 6 -12 -4 -16 -12 -4 -16 7
-22 50 -9 77 -13 83 -45 83 -27 0 -29 -3 -35 -47z"/>
<path d="M4187 6798 c-2 -7 -1 -20 3 -28 4 -8 4 -23 1 -33 -6 -17 -8 -17 -20
-3 -16 19 -52 21 -69 4 -7 -7 -12 -29 -12 -50 0 -47 35 -77 69 -58 12 6 21 16
22 23 0 7 4 1 10 -11 5 -13 15 -22 21 -19 9 2 13 30 13 93 0 74 -3 89 -16 92
-10 2 -19 -3 -22 -10z"/>
<path d="M4530 6775 c-6 -8 -10 -18 -8 -22 2 -4 -6 -18 -19 -30 -22 -21 -23
-21 -23 -3 0 13 -7 20 -20 20 -14 0 -20 -7 -20 -22 l0 -22 -16 22 c-22 33 -75
27 -85 -8 -4 -14 -7 -18 -8 -9 -1 9 -10 24 -21 34 -17 15 -24 16 -45 7 -25
-12 -35 -42 -14 -42 8 0 8 -4 -1 -14 -6 -8 -10 -25 -8 -38 2 -19 10 -23 46
-26 40 -3 42 -2 42 25 l0 28 13 -25 c16 -32 65 -40 84 -14 12 16 13 16 13 1 0
-10 8 -17 20 -17 12 0 20 7 20 17 0 14 3 13 23 -5 29 -27 52 -28 70 -2 14 20
15 20 19 3 4 -14 16 -19 47 -20 l42 -2 -3 57 -3 57 -42 3 c-39 3 -43 1 -44
-20 0 -23 0 -23 -9 -2 -4 12 -16 24 -26 28 -13 5 -15 9 -6 18 14 14 16 38 3
38 -5 0 -14 -7 -21 -15z"/>
<path d="M4733 6764 c-3 -8 -2 -48 3 -87 l9 -72 35 2 c19 1 39 8 45 16 10 14
13 13 23 -4 14 -21 52 -25 70 -7 19 19 14 31 -13 26 -14 -3 -25 -2 -25 2 0 4
14 10 30 12 27 4 30 2 30 -24 0 -21 5 -28 19 -28 16 0 21 8 24 43 l4 42 1 -47
c2 -41 5 -48 22 -48 16 0 20 7 21 33 l1 32 10 -28 c20 -54 88 -44 88 14 0 43
18 35 22 -8 4 -52 30 -51 39 0 8 50 19 59 20 16 2 -57 3 -62 17 -67 7 -2 16 5
19 16 l5 21 28 -20 c23 -17 31 -19 49 -10 11 7 21 16 21 21 0 6 9 1 20 -10 40
-40 80 -19 80 41 0 61 -41 88 -79 50 -18 -18 -18 -18 -30 0 -14 23 -54 25 -72
3 -11 -14 -13 -14 -21 0 -6 11 -17 14 -33 10 -23 -6 -25 -4 -19 26 6 29 5 31
-16 28 -17 -2 -26 -12 -32 -35 -10 -37 -13 -39 -35 -17 -21 21 -55 14 -69 -15
l-12 -24 -4 24 c-3 21 -9 24 -45 26 -38 2 -43 -1 -43 -20 l0 -21 -16 22 c-20
29 -70 30 -79 2 -11 -34 -26 -23 -20 13 5 25 2 39 -10 50 -21 22 -74 22 -82 1z"/>
<path d="M7142 6758 c-37 -12 -116 -78 -134 -112 -6 -11 -14 -37 -17 -55 -6
-35 -7 -35 -81 -49 -41 -7 -78 -18 -81 -24 -4 -5 -9 -53 -13 -106 -10 -154
-16 -180 -37 -185 -23 -6 -25 -34 -3 -58 15 -16 16 -32 7 -138 -6 -65 -14
-124 -17 -130 -4 -6 -17 -11 -29 -11 -35 0 -86 -37 -93 -66 -10 -41 14 -76 64
-94 28 -10 42 -20 39 -30 -4 -19 -34 -15 -69 11 l-27 19 -17 -24 c-36 -56 15
-99 121 -103 67 -2 73 -4 127 -48 l57 -46 173 50 c95 27 256 72 358 100 213
59 230 65 230 86 0 10 10 15 28 15 16 0 32 3 36 8 4 4 24 7 44 7 l37 0 0 80 0
80 -48 9 c-39 7 -51 5 -66 -8 -27 -24 -32 -19 -13 13 16 28 15 30 -5 48 -19
17 -22 34 -33 263 -7 135 -14 248 -16 252 -2 3 -34 16 -70 28 -55 19 -68 27
-82 56 -8 19 -19 34 -24 34 -11 0 -11 -2 12 -54 13 -32 28 -50 47 -57 28 -11
28 -11 6 -20 -13 -4 -23 -15 -23 -24 0 -13 9 -14 54 -9 l54 7 6 -44 c11 -74
11 -421 0 -468 l-9 -45 -67 3 c-65 2 -68 1 -78 -24 -7 -20 -14 -24 -23 -17 -6
5 -28 12 -48 16 -28 5 -42 2 -62 -14 -32 -26 -34 -25 -42 8 -8 39 -62 102 -87
102 -13 0 -24 -10 -31 -30 -13 -35 -20 -37 -54 -10 -45 35 -69 27 -91 -32 -11
-29 -23 -68 -27 -85 -6 -32 -7 -32 -31 -17 -22 15 -24 23 -24 90 0 66 2 74 19
74 10 0 30 9 44 20 22 17 26 18 37 5 19 -23 34 -18 53 15 20 33 32 38 41 15 6
-17 57 -20 73 -4 8 8 17 8 31 0 34 -18 59 -13 86 20 25 29 28 30 45 15 20 -18
57 -21 66 -6 3 6 17 7 31 4 39 -10 49 7 49 88 l0 73 -48 8 c-38 7 -52 6 -73
-8 -14 -9 -26 -15 -27 -13 -51 102 -77 133 -107 126 -18 -4 -40 114 -43 220
-2 81 -1 84 27 109 36 31 69 25 112 -21 34 -36 71 -124 80 -190 5 -33 2 -46
-16 -66 -17 -20 -20 -21 -16 -6 6 16 4 17 -9 6 -16 -13 -19 -37 -9 -64 8 -22
53 -21 60 2 3 9 13 30 21 46 24 44 12 152 -26 229 -36 76 -47 89 -91 116 -44
26 -86 27 -127 1 -64 -39 -74 -98 -43 -260 22 -110 22 -155 0 -120 -7 11 -10
7 -16 -15 -10 -39 7 -61 43 -58 20 2 37 -4 48 -17 17 -19 17 -21 -8 -46 -21
-21 -29 -24 -46 -15 -14 8 -27 8 -46 -1 -21 -9 -31 -9 -46 0 -30 19 -49 14
-60 -14 -9 -25 -11 -26 -28 -10 -9 9 -25 16 -34 16 -11 0 -17 8 -17 24 0 14
-4 28 -10 31 -5 3 -10 30 -10 60 l0 54 55 10 c30 6 80 16 110 22 36 7 55 15
55 25 0 18 1 18 -106 -6 -121 -27 -122 -27 -130 17 -4 20 -18 47 -32 60 -30
27 -34 26 123 50 92 14 120 22 120 33 0 17 -24 18 -94 7 l-44 -8 7 33 c11 58
96 128 155 128 36 1 80 24 68 36 -11 12 -92 13 -125 2z m-252 -293 l29 -15 -6
-98 c-3 -53 -7 -99 -9 -100 -1 -2 -20 -6 -41 -9 l-39 -5 12 118 c7 66 13 120
13 122 2 5 13 1 41 -13z m443 -175 c53 -62 60 -146 17 -215 -24 -39 -57 -46
-85 -18 -33 33 2 143 45 143 27 0 25 23 -6 59 -24 29 -27 61 -5 61 5 0 20 -13
34 -30z m-358 -70 c0 -10 -12 -16 -32 -18 -20 -2 -34 -10 -37 -20 -11 -38 -26
-138 -26 -174 0 -39 -11 -47 -39 -29 -12 8 -12 21 -2 83 7 40 15 84 18 97 5
22 3 23 -22 18 -35 -6 -55 1 -55 19 0 7 16 16 38 19 20 3 53 10 72 15 50 12
85 8 85 -10z m161 -53 c3 -8 0 -27 -6 -43 -10 -26 -8 -25 28 14 28 30 44 40
56 36 11 -4 15 -12 11 -23 -14 -33 -18 -91 -6 -91 6 0 11 -5 11 -11 0 -6 -12
-9 -27 -7 -24 3 -29 8 -33 41 l-5 39 -25 -41 c-42 -70 -46 -74 -60 -66 -14 8
-8 93 10 139 10 28 37 35 46 13z m141 -239 c37 -55 40 -151 7 -195 -23 -31
-67 -42 -91 -22 -31 26 4 135 48 146 25 7 24 20 -7 60 -14 18 -22 38 -19 43
13 20 36 9 62 -32z m-463 -58 c26 -9 35 -33 17 -44 -5 -3 -23 -1 -41 5 -33 12
-110 -2 -110 -20 0 -10 37 -27 92 -41 80 -22 110 -73 68 -118 -26 -28 -60 -36
-113 -28 -46 8 -77 30 -77 56 0 17 2 17 37 -1 48 -25 104 -24 134 0 31 26 19
38 -57 57 -75 20 -104 38 -104 68 0 52 90 91 154 66z m600 3 c4 -4 15 -8 24
-8 13 0 16 -12 16 -62 1 -64 -14 -89 -32 -56 -8 14 -12 13 -31 -6 -25 -25 -34
-26 -51 -6 -37 44 35 177 74 138z m-441 -65 c22 -11 27 -20 27 -51 0 -49 -13
-73 -50 -92 -29 -15 -31 -14 -55 9 -14 14 -25 32 -25 41 0 33 47 103 71 105 3
0 17 -6 32 -12z m622 4 c6 -4 16 -19 22 -34 7 -16 17 -28 23 -28 5 0 10 -4 10
-10 0 -5 -6 -10 -13 -10 -8 0 -155 -40 -328 -90 -173 -49 -322 -90 -331 -90
-29 0 -25 84 6 121 l24 28 17 -25 c20 -32 58 -30 63 3 3 22 4 22 29 6 24 -16
26 -16 38 1 11 14 17 15 34 7 33 -18 70 -13 95 14 27 29 32 30 53 9 9 -9 22
-12 32 -8 17 8 62 14 126 17 35 2 40 5 46 33 12 63 26 77 54 56z"/>
<path d="M5512 6738 c-17 -17 -15 -58 5 -80 15 -17 15 -18 0 -18 -25 0 -21
-36 5 -54 29 -21 34 -20 59 5 l21 21 14 -21 c19 -26 46 -27 69 -1 l18 20 14
-20 c17 -24 61 -26 70 -4 6 15 7 15 19 -1 8 -10 20 -15 29 -11 9 3 22 3 28 -1
7 -4 27 -8 45 -10 31 -2 32 -1 32 40 0 49 -22 87 -50 87 -24 0 -44 -32 -29
-47 6 -6 5 -14 -6 -23 -13 -11 -15 -7 -15 29 0 34 -3 41 -20 41 -12 0 -20 -7
-20 -17 -1 -17 -1 -17 -11 0 -13 22 -65 23 -77 1 -8 -15 -11 -15 -31 5 -25 25
-44 27 -65 5 -9 -8 -16 -22 -16 -30 0 -10 -5 -9 -20 6 -24 24 -26 34 -5 26 11
-4 15 1 15 17 0 29 -18 47 -45 47 -12 0 -26 -5 -33 -12z"/>
<path d="M3858 6523 c-41 -26 -61 -82 -61 -167 0 -137 37 -206 119 -222 48 -9
108 10 128 42 10 13 20 47 23 74 l6 50 -57 0 c-56 0 -63 -6 -57 -43 3 -16 -21
-49 -29 -41 -12 12 -24 185 -16 219 9 36 30 27 36 -16 5 -33 6 -34 59 -37 l54
-3 -6 47 c-7 68 -48 106 -119 111 -38 3 -61 -1 -80 -14z"/>
<path d="M4136 6508 c-3 -7 -7 -38 -11 -68 -3 -30 -14 -108 -23 -172 -19 -130
-20 -128 44 -128 28 0 36 5 44 25 7 17 17 25 34 25 21 0 25 -5 28 -32 3 -33 3
-33 62 -36 51 -3 58 -1 52 13 -3 9 -17 76 -31 148 -14 73 -30 156 -36 185
l-10 52 -75 0 c-51 0 -76 -4 -78 -12z"/>
<path d="M4386 6322 c4 -103 8 -189 10 -191 1 -2 45 -4 96 -5 l93 -1 3 34 c4
40 -9 51 -59 51 l-36 0 -9 148 -9 147 -48 2 -48 2 7 -187z"/>
<path d="M4605 6490 c-4 -6 -4 -92 0 -191 l7 -179 33 0 c17 0 60 -3 94 -6 l62
-7 -3 44 c-3 44 -3 44 -44 47 -41 3 -41 3 -48 49 -3 25 -6 90 -6 144 0 77 -3
99 -14 99 -7 0 -27 3 -44 6 -18 4 -32 1 -37 -6z"/>
<path d="M4843 6493 c-13 -2 -23 -12 -23 -21 -3 -83 2 -322 7 -339 5 -22 10
-23 94 -23 l89 0 0 39 c0 39 -1 40 -42 48 -33 7 -44 14 -46 30 -3 19 2 22 35
25 37 3 38 4 38 43 0 39 -1 40 -37 43 -35 3 -38 6 -38 33 0 28 2 29 45 29 l45
0 0 45 0 45 -37 0 c-21 0 -54 2 -73 4 -19 2 -45 2 -57 -1z"/>
<path d="M5165 6480 c-4 -6 -4 -56 0 -110 4 -54 4 -117 0 -139 -11 -65 -45
-50 -45 19 0 25 -5 30 -34 36 -46 8 -56 0 -56 -47 0 -87 44 -139 118 -139 96
0 118 39 115 205 -2 158 -9 179 -55 183 -20 2 -39 -2 -43 -8z"/>
<path d="M5300 6293 l0 -190 38 -7 c20 -3 63 -6 95 -6 l58 0 -3 43 c-3 41 -4
42 -43 47 -35 4 -40 8 -40 30 0 21 5 26 33 28 30 3 32 6 32 42 0 38 -1 39 -37
42 -33 3 -38 7 -41 31 -3 26 -2 27 42 27 l46 0 0 45 c0 25 -4 45 -9 45 -4 0
-7 -17 -5 -37 2 -35 2 -37 -12 -19 -8 11 -14 15 -14 8 0 -6 -6 -9 -14 -6 -7 3
-16 -2 -20 -11 -4 -11 -13 -15 -28 -11 -13 3 -17 3 -10 0 13 -6 17 -44 4 -44
-5 0 -14 10 -20 23 -11 22 -11 22 -11 1 -1 -12 -8 -24 -16 -28 -12 -4 -15 5
-15 53 l0 59 65 -1 c36 0 68 2 72 6 3 4 -11 7 -33 7 -21 0 -56 3 -76 6 l-38 7
0 -190z"/>
<path d="M5533 6473 c-10 -3 -13 -51 -13 -189 l0 -184 50 0 50 0 0 62 c0 34 3
58 7 54 4 -3 16 -37 28 -74 l21 -67 44 2 c24 2 45 5 48 8 3 3 -7 35 -21 73
-32 81 -32 77 -7 109 11 14 20 33 20 42 0 9 -7 3 -16 -14 -20 -38 -18 -37 -48
-29 -31 7 -35 34 -5 34 12 0 19 5 17 13 -3 6 -11 12 -19 12 -9 0 -15 13 -17
33 -2 19 -11 38 -23 45 -10 6 -19 17 -19 24 0 7 -7 13 -16 13 -11 0 -14 6 -9
20 4 14 2 20 -8 20 -8 0 -17 -10 -21 -22 -10 -37 -7 -48 12 -48 14 0 17 -8 14
-55 -2 -30 -8 -55 -14 -55 -5 0 -6 -4 -3 -10 9 -14 -8 -13 -23 2 -9 9 -14 6
-21 -13 -9 -23 -10 -23 -10 -2 -1 13 7 24 19 28 11 4 20 15 20 26 0 16 -3 18
-19 9 -18 -9 -19 -7 -16 38 4 65 11 87 24 85 6 -2 11 2 11 7 0 10 -16 12 -37
3z"/>
<path d="M5851 6448 c-44 -29 -51 -47 -16 -40 19 3 24 9 20 21 -5 12 -4 13 6
4 16 -16 -6 -44 -28 -36 -12 5 -15 2 -10 -10 3 -9 2 -17 -2 -17 -5 0 -12 6
-14 13 -3 6 -6 2 -6 -10 -1 -13 4 -22 10 -20 6 1 14 -4 16 -12 4 -10 0 -11
-17 -6 -23 7 -23 7 -18 -82 8 -137 44 -183 141 -183 90 0 124 68 114 225 -7
121 -33 157 -118 170 -36 5 -50 2 -78 -17z"/>
<path d="M6113 6440 c-14 -6 -26 -23 -33 -48 -17 -65 4 -109 77 -157 69 -46
91 -95 43 -95 -13 0 -20 8 -22 28 -3 25 -7 27 -55 30 -49 3 -53 1 -53 -19 0
-12 10 -39 22 -60 18 -32 29 -40 67 -48 58 -12 120 0 144 30 11 14 17 38 17
69 0 41 -5 53 -30 79 -17 16 -40 33 -53 37 -12 3 -33 16 -46 28 -17 15 -23 17
-19 5 4 -9 1 -16 -7 -16 -7 0 -11 6 -8 14 3 8 -2 13 -16 13 -12 0 -21 -4 -21
-10 0 -5 5 -10 10 -10 6 0 10 -5 10 -11 0 -8 -4 -9 -13 0 -8 6 -16 9 -19 6 -2
-3 -3 10 -2 28 3 30 3 30 -6 7 -8 -21 -9 -20 -4 10 4 19 6 43 6 53 -1 15 2 16
13 7 9 -8 12 -22 8 -41 -3 -18 -1 -29 6 -29 10 0 15 14 12 34 -1 4 4 15 11 24
8 9 8 13 2 9 -7 -4 -15 0 -18 9 -8 21 -8 26 2 20 4 -2 14 -1 22 5 12 7 11 9
-5 8 -11 0 -30 -4 -42 -9z"/>
<path d="M3870 6040 l-55 -5 3 -75 c6 -194 15 -296 26 -302 19 -13 145 -9 181
6 63 27 76 102 26 158 l-29 34 24 21 c25 23 30 55 14 97 -18 49 -92 75 -190
66z"/>
<path d="M4147 6023 c-3 -4 -10 -48 -16 -98 -6 -49 -17 -129 -25 -177 -13 -87
-12 -88 8 -89 79 -5 81 -4 84 19 3 19 9 23 30 20 21 -2 28 -10 32 -33 5 -28 8
-30 59 -33 51 -3 53 -2 48 20 -6 27 -54 275 -65 333 l-7 40 -72 3 c-39 2 -73
-1 -76 -5z"/>
<path d="M4402 6022 c-9 -7 -12 -52 -10 -193 l3 -184 50 0 50 0 5 60 5 60 25
-72 24 -73 46 0 c26 0 49 3 52 6 4 3 -8 38 -24 78 l-31 73 23 30 c16 23 22 44
22 83 -1 64 -20 96 -75 121 -43 19 -141 26 -165 11z"/>
<path d="M4682 6011 c-11 -7 -13 -43 -7 -194 l8 -186 52 -6 c78 -10 134 2 168
37 26 26 29 34 24 76 -4 34 -12 52 -31 67 l-26 21 25 24 c54 50 21 136 -61
159 -46 13 -134 14 -152 2z"/>
<path d="M4987 5968 c-3 -18 -9 -60 -12 -93 -6 -54 -15 -115 -31 -212 l-5 -33
51 0 c44 0 53 3 57 21 9 32 57 22 61 -13 3 -27 6 -28 59 -28 44 0 54 3 50 14
-3 8 -20 90 -37 183 -18 92 -34 174 -36 181 -2 8 -27 12 -78 12 l-74 0 -5 -32z"/>
<path d="M5396 5992 c-2 -4 -1 -39 4 -77 18 -136 7 -141 -39 -19 l-33 85 -46
-3 -47 -3 1 -45 c1 -25 2 -105 3 -177 l1 -133 46 0 45 0 -2 70 c-1 39 0 73 3
76 3 3 21 -32 40 -78 l35 -83 48 -3 48 -3 -7 133 c-3 73 -9 163 -13 201 l-6
67 -38 0 c-21 0 -40 -4 -43 -8z"/>
<path d="M5520 5935 l0 -45 50 0 c31 0 50 -4 50 -11 0 -7 -19 -44 -42 -83 -36
-61 -42 -79 -42 -131 l-1 -60 98 -3 97 -3 0 39 c0 42 -13 52 -67 52 -13 0 -23
3 -23 6 0 3 20 43 45 88 38 71 45 91 45 140 l0 56 -105 0 -105 0 0 -45z"/>
<path d="M5806 5953 c-3 -15 -15 -93 -26 -173 -11 -80 -23 -151 -25 -157 -2
-8 4 -13 14 -13 10 0 32 -3 48 -6 27 -5 31 -3 37 20 9 38 52 36 61 -3 5 -25
12 -29 48 -34 23 -3 46 -2 50 2 4 4 -1 59 -13 122 -11 63 -26 148 -33 189
l-12 75 -72 3 c-71 3 -71 3 -77 -25z"/>
<path d="M225 5500 c-7 -12 -8 -11 30 -16 53 -6 44 58 105 -764 11 -140 24
-316 30 -390 17 -207 29 -444 23 -450 -2 -3 -57 -6 -121 -7 -72 -1 -118 -6
-120 -12 -2 -6 -8 -11 -13 -11 -6 0 -7 5 -4 10 3 6 -4 10 -17 10 -18 0 -20 -2
-8 -10 12 -8 9 -10 -12 -10 -20 0 -28 -5 -29 -17 0 -12 -5 -8 -14 12 -11 24
-14 26 -15 10 -1 -19 -1 -19 -14 -2 -7 9 -20 17 -29 17 -13 0 -16 -19 -16
-135 l-1 -135 221 0 220 0 -3 -26 c-3 -25 -5 -26 -88 -29 -47 -1 -145 -3 -217
-4 l-133 -1 0 -135 0 -135 233 -2 232 -3 3 -32 3 -33 -83 -1 c-46 0 -152 0
-235 1 l-153 1 0 -326 0 -326 157 1 c87 1 203 1 259 1 l101 -1 12 -147 c7 -82
16 -202 21 -268 27 -385 42 -583 46 -602 4 -21 10 -23 73 -23 46 0 71 4 73 12
3 9 117 14 469 18 l464 6 -460 3 c-253 2 -465 3 -471 2 -7 -1 -15 66 -23 196
-6 109 -16 234 -21 278 -15 129 -29 282 -35 395 -13 251 -16 305 -25 397 -5
54 -13 157 -19 228 -6 72 -15 177 -21 235 -5 58 -15 182 -20 275 -6 94 -15
213 -22 265 -6 52 -10 105 -10 118 1 12 -3 22 -9 22 -8 0 -8 4 0 13 6 8 9 29
7 48 -2 19 -7 81 -11 139 -3 58 -12 186 -20 285 -8 99 -19 268 -25 375 -5 107
-13 228 -16 268 -5 61 -4 72 9 72 9 0 19 -5 22 -10 4 -6 11 -8 16 -5 5 4 12
-1 15 -9 8 -21 24 -20 24 2 1 15 2 15 10 2 4 -9 13 -76 19 -149 6 -74 12 -136
14 -137 5 -6 769 -6 774 0 3 3 -2 17 -11 30 -9 14 -16 31 -16 37 0 16 36 -31
44 -57 6 -20 13 -21 264 -27 141 -3 259 -3 261 -1 3 3 -3 18 -12 33 -26 45
-20 60 8 19 14 -20 25 -42 25 -47 0 -7 54 -11 158 -11 86 0 201 -3 255 -7 90
-6 97 -5 97 12 0 10 -7 27 -17 37 -9 10 -13 21 -9 25 4 5 12 0 17 -10 6 -9 13
-17 17 -17 4 0 26 43 47 95 22 52 41 91 43 85 3 -8 -10 -41 -64 -167 -28 -64
-30 -63 139 -63 83 0 198 -3 255 -6 109 -6 120 -1 87 42 -16 21 -19 34 -7 34
4 0 17 -18 30 -40 l23 -40 108 0 c59 0 129 -3 155 -6 l48 -7 -8 262 -7 261 42
0 c32 0 41 -4 43 -17 1 -10 2 -25 4 -33 1 -8 3 -35 4 -60 l2 -45 10 40 c11 43
12 99 4 121 -4 10 -34 13 -122 13 -64 0 -119 3 -122 6 -3 3 25 5 61 5 60 0 67
2 67 20 0 11 -5 20 -11 20 -5 0 -8 4 -5 9 3 5 -13 12 -37 17 -38 8 -33 9 46
12 48 1 124 1 167 0 69 -3 76 -5 55 -15 -14 -6 -23 -7 -19 -2 3 5 0 9 -5 9 -6
0 -11 -5 -11 -11 0 -5 -4 -8 -9 -4 -5 3 -12 -4 -16 -15 -6 -20 -25 -28 -25
-10 0 5 -7 7 -15 4 -8 -4 -15 -10 -15 -15 0 -4 6 -6 14 -3 13 5 30 -21 22 -34
-2 -4 2 -77 10 -162 7 -85 13 -186 14 -225 0 -91 10 -151 21 -133 7 10 9 10 9
1 0 -9 21 -13 69 -13 76 0 91 12 64 49 -8 12 -13 27 -11 33 4 12 48 -52 48
-70 0 -14 62 -18 302 -21 228 -2 219 -5 180 57 -8 12 -10 22 -6 22 5 0 17 -18
27 -40 9 -22 20 -40 24 -41 5 0 125 -2 268 -5 143 -2 325 -6 405 -8 80 -2 159
-1 176 1 l31 5 -5 148 c-2 81 -1 194 3 251 l7 104 39 -3 c21 -2 47 0 57 4 11
6 -4 10 -48 14 l-65 5 3 39 c3 32 1 38 -12 33 -9 -4 -16 -2 -16 2 0 15 71 21
135 12 33 -5 54 -9 47 -10 -7 0 -10 -6 -7 -11 3 -6 -1 -13 -10 -16 -20 -8 -42
-45 -23 -42 15 4 14 11 23 -277 4 -126 12 -238 16 -247 9 -16 38 -17 347 -17
185 -1 678 -4 1096 -7 l758 -7 20 24 c18 23 19 23 8 2 l-11 -23 121 0 c95 0
120 3 120 14 0 7 7 20 17 27 15 13 15 12 5 -8 -17 -31 -16 -33 16 -33 l29 0 6
221 c5 199 7 222 24 234 10 8 28 15 41 15 14 0 29 11 42 32 21 35 27 29 33
-37 3 -22 4 -6 4 35 -1 68 1 76 21 85 31 14 27 25 -8 25 -17 0 -29 -3 -28 -7
6 -20 -24 -53 -47 -53 -14 0 -25 -4 -25 -10 0 -5 -5 -10 -11 -10 -5 0 -7 5 -4
10 4 6 -5 10 -20 10 -15 0 -24 4 -20 10 5 9 -9 14 -18 8 -2 -2 -12 4 -22 12
-17 14 -15 15 26 20 24 3 -199 9 -496 13 -1515 21 -4499 79 -4755 92 -99 5
-732 19 -1395 30 -165 3 -425 7 -577 10 -174 3 -279 1 -283 -5z"/>
<path d="M614 4654 c3 -33 10 -122 16 -199 5 -77 28 -385 50 -685 21 -300 42
-583 45 -630 3 -47 10 -130 15 -185 5 -55 12 -144 16 -198 l6 -99 21 20 c23
21 117 46 128 34 4 -4 9 -39 12 -79 5 -65 4 -71 -15 -76 -15 -4 -18 -11 -13
-26 4 -12 2 -21 -4 -21 -6 0 -11 10 -12 23 -1 21 -1 21 -9 -3 -7 -23 -8 -23
-9 -4 -1 21 -19 34 -47 34 -10 0 -14 -12 -14 -40 0 -36 3 -40 33 -48 20 -6 31
-14 28 -23 -12 -44 -12 -65 -1 -100 7 -21 11 -41 9 -43 -2 -2 -19 -1 -36 1
-33 5 -33 5 -34 67 0 33 -4 81 -8 106 l-8 45 -2 -37 c0 -21 3 -93 9 -160 5
-68 15 -199 21 -293 6 -93 14 -210 18 -259 l6 -88 595 3 c327 1 629 4 670 5
41 1 366 3 723 3 l647 1 0 78 c0 140 -11 214 -32 220 -22 5 -23 15 -3 32 18
15 19 104 5 400 -5 113 -17 354 -25 535 -12 272 -43 891 -70 1440 -3 61 -8
142 -11 181 l-5 72 -367 6 c-202 3 -441 9 -532 11 -91 3 -433 10 -760 15 -327
5 -700 12 -829 16 l-233 7 6 -59z m1656 -898 c54 -11 61 -13 70 -22 7 -7 29
-8 55 -4 41 6 45 5 45 -14 0 -12 4 -16 8 -11 8 12 41 13 59 2 6 -4 14 -3 18 3
4 6 11 8 16 5 5 -4 9 0 9 8 0 15 -36 17 -57 4 -6 -4 -14 -3 -17 2 -9 14 3 18
69 20 94 3 93 5 101 -196 l6 -173 -28 -2 c-28 -1 -57 -4 -81 -7 -7 0 -13 -5
-13 -10 0 -4 26 -11 59 -15 56 -6 59 -8 65 -38 11 -54 7 -226 -5 -234 -8 -5
-6 -10 5 -16 19 -11 21 -47 4 -53 -7 -3 -128 -1 -268 3 l-255 7 -2 78 c-1 42
-6 150 -12 240 -6 89 -13 224 -17 301 l-6 138 73 -5 c41 -4 85 -8 99 -11z
m987 -578 c6 -7 13 -93 17 -190 l7 -178 -260 0 c-143 0 -262 3 -264 8 -3 4 -8
89 -12 190 l-8 182 255 0 c193 0 258 -3 265 -12z"/>
<path d="M2244 3420 c-12 -5 -25 -13 -29 -19 -3 -6 -22 -11 -41 -11 -21 0 -33
-4 -29 -10 3 -5 15 -10 26 -10 16 0 19 -8 21 -50 0 -27 1 -56 2 -62 2 -31 42
-47 120 -49 92 -3 114 10 94 54 -7 15 -21 27 -30 27 -11 0 -15 5 -12 15 4 10
0 15 -15 15 -12 0 -21 -4 -21 -9 0 -8 -18 -15 -65 -27 -5 -1 -18 -5 -27 -9
-13 -5 -18 -2 -18 9 0 9 6 16 14 16 7 0 19 6 25 14 7 8 21 12 33 8 13 -3 19
-1 15 5 -4 6 -22 10 -39 8 -44 -3 -55 5 -26 19 12 7 22 18 20 26 -2 7 3 10 11
7 17 -6 51 19 42 32 -7 13 -41 13 -71 1z"/>
<path d="M3479 4644 c-2 -18 2 -107 16 -404 15 -327 51 -1142 63 -1457 4 -105
10 -195 14 -198 4 -4 67 -7 141 -7 74 0 140 -4 148 -8 9 -6 15 -61 20 -212 4
-112 10 -244 13 -294 l5 -91 -146 -2 c-81 -1 -149 -4 -151 -6 -6 -6 -5 -81 7
-387 9 -221 11 -238 30 -257 23 -23 19 -46 -5 -37 -17 6 -19 -15 -2 -32 8 -8
8 -15 -2 -27 -17 -20 -7 -67 23 -108 28 -37 45 -67 30 -52 -5 6 -19 23 -31 39
l-22 29 0 -49 c0 -40 7 -59 35 -102 20 -28 32 -52 27 -52 -5 0 -18 18 -31 40
-12 22 -24 40 -27 40 -9 0 10 -156 20 -162 7 -5 6 -8 -3 -8 -11 0 -11 -3 -1
-15 10 -13 9 -15 -9 -15 -12 0 -21 6 -21 15 0 8 -4 15 -9 15 -5 0 -11 -7 -15
-15 -6 -18 -76 -21 -76 -4 0 8 -4 8 -14 -1 -21 -17 -60 -9 -64 14 -2 10 0 16
5 13 5 -3 37 0 71 8 34 8 68 12 76 9 18 -7 27 8 15 26 -8 13 -10 13 -18 0 -8
-12 -13 -12 -29 4 -15 13 -21 14 -25 4 -3 -8 -10 -1 -18 17 -8 19 -14 84 -15
180 -3 162 -11 277 -24 340 -8 35 -8 32 -7 -27 1 -36 -1 -64 -5 -61 -5 2 -7
41 -7 86 1 45 3 74 6 65 7 -26 23 -22 23 6 0 13 3 31 6 40 11 29 -25 17 -45
-14 -10 -16 -20 -28 -23 -25 -7 7 -854 6 -1560 -1 -304 -3 -737 -7 -961 -7
-350 -2 -409 -4 -417 -17 -8 -13 -49 -16 -250 -18 l-240 -3 0 -635 0 -634 63
-1 c39 0 55 -3 43 -8 -11 -4 -39 -6 -63 -3 l-43 4 0 -56 0 -55 223 -3 c211 -3
225 -2 287 20 73 27 140 62 140 74 0 4 -93 8 -207 9 -115 1 -233 4 -263 9 -56
7 -43 15 19 11 21 -2 31 1 27 7 -3 6 -1 14 5 18 7 4 9 3 6 -3 -11 -18 32 -23
44 -5 9 15 10 15 6 1 -8 -24 42 -28 198 -18 179 11 485 11 485 0 0 -5 -6 -12
-12 -14 -8 -3 -6 -6 5 -6 9 -1 17 4 17 9 0 6 127 10 361 10 207 0 358 -4 355
-9 -3 -5 3 -11 13 -14 12 -3 22 1 25 9 5 14 49 14 831 -1 105 -2 277 -4 384
-4 175 -1 193 -3 187 -17 -5 -14 -4 -15 9 -4 11 9 48 11 148 7 169 -8 208 -15
229 -41 17 -20 18 -17 18 85 0 84 3 108 15 112 8 4 157 6 333 7 175 0 327 2
337 4 11 2 178 6 370 10 193 3 421 9 509 12 129 5 160 4 167 -7 5 -8 9 -63 9
-123 l0 -108 33 6 c37 7 713 6 1160 -1 205 -3 307 -1 307 5 0 7 11 8 31 2 17
-5 210 -12 428 -15 218 -3 527 -10 686 -16 327 -11 1586 -8 1578 3 -2 5 5 8
16 8 12 0 21 -5 21 -11 0 -7 51 -10 163 -8 89 1 227 1 307 -1 82 -1 181 4 228
11 63 10 85 10 94 1 18 -18 69 -16 62 3 -5 12 7 15 72 17 44 1 102 4 129 6 28
2 122 4 210 6 88 1 176 5 195 9 19 4 27 4 18 0 -13 -6 -15 -12 -8 -23 9 -13
13 -11 29 10 11 14 23 21 28 17 4 -5 1 -12 -7 -17 -12 -8 -10 -10 8 -10 13 0
20 4 17 10 -8 13 31 13 56 0 30 -17 22 -30 -18 -29 -58 0 -143 -12 -139 -20 2
-3 137 -8 300 -9 268 -2 296 -1 296 14 0 11 -5 14 -17 9 -42 -17 -53 -17 -53
-1 0 10 -4 15 -9 12 -12 -8 -71 4 -71 14 0 4 34 8 76 8 73 2 75 1 92 -28 l17
-30 280 -1 c154 -1 300 -2 325 -3 25 -1 75 1 112 4 37 3 74 2 83 -3 14 -8 15
56 11 660 -2 367 -4 675 -5 683 0 8 1 83 4 165 2 94 0 133 -5 105 -4 -25 -6
-64 -4 -87 2 -27 -1 -43 -9 -43 -8 0 -8 -3 1 -12 7 -7 12 -19 12 -28 0 -12 -2
-12 -9 -2 -6 9 -8 5 -9 -15 -1 -71 -5 -103 -12 -103 -4 0 -8 -39 -9 -87 -1
-48 -4 -90 -7 -95 -3 -4 0 -8 5 -8 6 0 11 -5 11 -11 0 -5 -4 -8 -9 -5 -4 3 -6
-5 -4 -18 3 -14 0 -32 -5 -42 -6 -10 -6 -27 -2 -39 5 -13 3 -28 -6 -40 -8 -10
-14 -31 -14 -47 0 -15 -4 -28 -8 -28 -5 0 -8 -10 -8 -23 1 -12 -4 -21 -10 -20
-6 1 -11 -5 -11 -14 0 -12 7 -8 24 12 23 26 24 26 18 4 -3 -13 -7 -43 -8 -66
-1 -24 -4 -43 -6 -43 -2 0 -14 12 -27 28 -13 15 -24 21 -24 14 0 -7 -5 -10
-11 -7 -6 4 -8 13 -5 20 5 14 -18 14 -31 0 -4 -4 -2 -5 6 0 9 5 12 4 7 -3 -4
-6 -13 -9 -20 -6 -7 3 -29 -3 -47 -14 -21 -12 -42 -16 -54 -12 -11 4 -32 3
-47 -2 -23 -8 -26 -13 -18 -33 8 -20 6 -23 -7 -18 -11 4 -14 2 -9 -5 4 -7 -1
-10 -14 -7 -12 2 -20 -1 -20 -10 0 -11 -8 -13 -30 -8 -19 3 -30 1 -30 -6 0
-11 -34 -10 -46 2 -4 3 2 5 14 2 11 -2 29 5 40 15 14 14 22 16 31 7 6 -6 11
-9 12 -7 0 3 2 16 5 30 3 19 2 21 -6 10 -8 -13 -10 -13 -10 0 0 9 -6 6 -17 -9
-16 -23 -17 -23 -24 -5 -6 15 -8 16 -8 3 -1 -20 -28 -33 -37 -18 -3 6 -12 8
-20 5 -7 -3 -21 6 -31 20 l-19 25 -24 -27 c-14 -15 -20 -24 -13 -20 6 3 14 2
17 -3 4 -5 -2 -8 -11 -7 -13 2 -18 12 -18 39 0 19 -3 33 -7 30 -5 -2 -8 -12
-8 -23 0 -15 -27 -36 -36 -27 -2 1 1 19 5 40 5 20 5 37 0 37 -15 0 -28 -36
-23 -66 3 -16 5 -40 6 -54 0 -17 2 -19 5 -8 2 10 8 18 12 18 5 0 3 -15 -3 -34
-9 -30 -12 -32 -23 -17 -14 18 -16 73 -7 224 6 82 10 104 20 100 9 -3 14 2 14
16 0 12 -6 21 -12 21 -9 0 -13 15 -12 43 0 27 5 41 12 39 7 -1 12 2 12 8 0 5
-5 10 -11 10 -7 0 -9 34 -7 102 3 83 6 103 18 103 14 0 16 6 12 36 -1 5 -7 7
-13 4 -12 -8 -8 124 16 555 3 52 10 199 16 325 5 127 14 313 19 415 5 102 14
291 20 420 6 129 15 300 20 379 7 98 7 147 0 156 -8 9 -69 11 -258 9 -136 -3
-670 -7 -1187 -9 -517 -3 -994 -7 -1060 -10 -66 -2 -296 -5 -512 -5 l-391 0
-6 -27 c-2 -16 -6 -143 -8 -283 -2 -198 0 -255 10 -256 6 -1 23 -2 37 -3 20
-1 25 -6 25 -26 l0 -26 -22 21 -23 21 -7 -23 c-6 -23 -6 -23 -8 2 l-2 25 -7
-26 c-5 -14 -11 -196 -15 -405 -8 -513 -19 -939 -32 -1319 -3 -71 -5 -170 -5
-218 -1 -76 -3 -86 -14 -70 -10 13 -17 15 -25 7 -8 -8 -8 -14 -2 -18 11 -7 -7
-56 -21 -56 -5 0 -6 4 -2 9 3 5 1 13 -5 16 -6 4 -9 1 -8 -6 2 -6 -2 -13 -9
-16 -7 -2 -10 3 -8 14 2 10 4 18 6 18 1 0 2 15 3 34 2 25 -2 35 -16 39 -10 2
-15 9 -11 15 3 6 1 7 -5 3 -7 -4 -12 -1 -12 10 0 12 -6 15 -21 11 -15 -4 -23
1 -30 20 -7 20 -13 23 -21 15 -9 -9 -9 -15 0 -24 7 -7 12 -21 12 -32 0 -16 3
-17 9 -8 6 10 10 8 15 -10 5 -18 8 -20 15 -9 5 8 7 21 4 30 -4 13 -3 13 5 2 6
-8 8 -21 5 -30 -3 -10 -2 -12 4 -5 5 7 14 4 27 -10 16 -16 16 -18 3 -13 -9 3
-16 3 -14 -1 1 -4 -2 -8 -8 -10 -5 -1 -11 3 -11 8 -3 23 -5 24 -13 11 -13 -21
-58 24 -66 67 l-7 35 -13 -24 c-8 -13 -19 -33 -24 -44 -7 -14 -10 -15 -10 -5
-1 8 -13 21 -28 28 -20 9 -24 9 -15 0 7 -7 12 -15 12 -19 0 -7 -40 -22 -54
-20 -5 1 -6 -5 -3 -12 3 -8 -1 -27 -9 -42 -13 -26 -13 -29 6 -42 26 -18 26
-33 -1 -33 -15 0 -20 -6 -19 -22 4 -40 1 -47 -22 -58 -21 -10 -21 -10 -5 3 9
8 17 20 17 28 0 10 -3 10 -12 1 -14 -14 -32 -16 -23 -2 8 13 -5 61 -15 55 -5
-3 -6 5 -2 17 3 12 1 19 -4 15 -14 -8 -15 34 -2 50 5 7 15 10 22 6 6 -3 2 3
-8 16 -11 12 -31 27 -45 34 -14 7 -26 17 -26 22 0 6 -3 15 -6 20 -3 6 -5 22
-4 38 1 15 0 25 -3 22 -3 -3 -12 1 -21 8 -14 11 -15 10 -1 -7 8 -11 16 -27 16
-38 1 -10 3 -20 4 -23 1 -3 3 -8 4 -12 1 -5 5 -14 9 -21 5 -8 3 -12 -8 -12 -9
0 -14 -4 -11 -8 2 -4 1 -14 -5 -22 -6 -11 -9 -12 -9 -2 0 7 -4 11 -8 8 -5 -3
-9 1 -9 9 0 8 5 13 11 12 15 -3 20 34 5 43 -16 10 -59 -17 -59 -37 0 -9 -6
-13 -15 -9 -9 3 -15 0 -15 -9 0 -8 -4 -15 -9 -15 -5 0 -8 -8 -7 -17 0 -10 -7
-18 -19 -20 -16 -1 -16 -1 -2 3 10 3 17 11 15 17 -3 20 12 55 27 61 11 4 12
12 4 38 -13 46 -13 45 29 56 l37 10 -33 1 c-18 1 -31 5 -27 10 3 5 1 12 -4 16
-6 3 -8 -3 -6 -15 2 -13 -1 -20 -11 -20 -8 0 -13 3 -13 8 3 20 -2 25 -12 12
-11 -15 -10 -8 2 39 2 7 -2 16 -10 19 -8 2 -11 0 -7 -6 3 -6 0 -13 -6 -15 -10
-4 -10 -6 -1 -6 10 -1 10 -7 1 -26 -7 -17 -14 -22 -19 -14 -4 8 -12 2 -23 -17
-14 -27 -15 -27 -16 -6 0 12 -4 22 -9 22 -4 0 -7 12 -5 28 l4 27 -10 -29 c-6
-19 -6 -34 0 -41 5 -6 6 -24 2 -40 -5 -19 -11 -25 -16 -17 -4 7 -5 16 -2 21 4
5 -3 7 -14 4 -25 -7 -26 5 -2 23 16 12 16 12 -3 11 -21 -2 -47 -36 -39 -49 3
-5 0 -8 -5 -8 -6 0 -11 -5 -11 -11 0 -5 4 -8 9 -4 5 3 12 1 15 -4 4 -5 2 -12
-4 -16 -7 -4 -6 -13 1 -27 19 -35 29 -79 17 -72 -8 5 -9 1 -5 -10 4 -10 3 -15
-3 -11 -5 3 -7 20 -4 38 4 26 3 28 -5 11 -9 -21 -34 -44 -29 -27 4 16 -14 53
-23 47 -6 -4 -6 -11 1 -19 15 -18 3 -40 -13 -27 -7 5 -20 8 -29 7 -10 -2 -17
0 -16 3 1 4 -2 16 -8 27 -11 20 -11 69 -1 112 4 13 -1 27 -11 35 -16 12 -16
11 -2 -6 14 -18 13 -19 -4 -13 -16 6 -17 5 -6 -8 10 -12 11 -18 1 -28 -10 -9
-11 -8 -6 6 8 18 -9 24 -20 7 -9 -15 -27 -1 -21 17 3 8 1 11 -4 8 -6 -3 -10
-2 -10 3 0 14 -36 7 -61 -12 -13 -9 -19 -14 -12 -11 6 3 14 1 17 -4 10 -15
-19 -20 -37 -6 -21 15 -22 32 -2 51 12 13 15 13 15 2 0 -8 -6 -20 -12 -27 -11
-11 -10 -12 0 -6 7 4 18 19 23 33 8 21 12 23 19 12 8 -12 10 -12 10 -1 0 8 7
11 20 8 10 -3 21 0 23 6 4 13 37 2 37 -12 0 -5 -8 -12 -17 -14 -14 -4 -12 -5
5 -6 17 -1 22 4 22 25 0 17 4 23 13 18 8 -5 7 -2 -2 10 -8 9 -20 15 -26 12 -8
-3 -13 5 -12 20 0 25 12 32 20 12 4 -10 6 -10 6 -1 1 6 -3 15 -9 18 -5 3 -10
28 -10 54 0 34 -5 53 -17 62 -15 12 -16 12 -8 -1 8 -13 6 -13 -8 -1 -9 7 -14
18 -11 25 3 6 -2 2 -10 -8 -12 -15 -16 -16 -16 -5 -1 9 -7 7 -19 -8 -11 -13
-24 -23 -30 -23 -22 0 -27 -77 -6 -92 5 -4 6 -10 3 -14 -10 -9 -39 22 -30 32
4 5 -3 0 -15 -10 -13 -10 -20 -24 -16 -30 4 -6 -2 -4 -13 5 -23 19 -42 19 -54
-1 -5 -8 -12 -11 -16 -8 -4 4 -15 3 -25 -2 -12 -7 -20 -7 -24 0 -5 8 -11 7
-21 -1 -12 -10 -13 -8 -8 7 7 18 6 18 -16 -1 -13 -11 -20 -15 -17 -8 4 6 3 14
-3 18 -5 3 -10 1 -10 -6 0 -7 -3 -9 -6 -6 -12 12 18 37 41 35 13 -1 21 -6 19
-10 -3 -4 0 -8 5 -8 6 0 11 6 11 13 0 8 3 7 10 -3 6 -10 9 -6 8 16 -1 27 -4
30 -24 26 -14 -2 -24 1 -24 7 0 6 5 11 10 11 6 0 15 12 21 27 8 22 12 24 19
13 7 -11 10 -8 10 12 0 21 4 26 18 22 9 -2 7 1 -5 7 -13 7 -23 15 -23 19 0 10
69 19 145 20 33 0 87 3 120 6 117 9 229 7 233 -5 2 -6 11 -11 20 -11 12 0 13
-3 5 -8 -16 -10 -13 -51 4 -45 7 3 13 0 13 -5 0 -11 31 -24 62 -27 9 -1 15 2
13 6 -6 9 24 21 36 14 4 -3 3 8 -2 25 -6 16 -16 30 -22 30 -11 0 0 15 11 15 4
0 13 4 20 8 8 6 12 2 12 -10 1 -17 1 -17 11 -1 8 14 23 18 67 18 32 0 63 -5
70 -12 9 -9 12 -7 13 13 1 13 3 17 6 8 2 -8 -3 -28 -11 -44 -11 -22 -12 -32
-4 -42 8 -10 13 -11 18 -3 5 8 9 6 14 -5 4 -12 14 -16 31 -13 13 3 27 0 30 -6
3 -6 3 3 0 19 -4 20 -3 25 3 16 19 -27 39 24 36 91 l-3 63 -51 -3 c-33 -1 -49
1 -45 8 7 11 -8 14 -18 4 -4 -4 -194 -7 -424 -8 -230 -1 -423 -5 -430 -9 -6
-4 -15 -2 -18 4 -4 5 -13 8 -21 5 -8 -3 -189 -8 -402 -11 -213 -3 -531 -8
-707 -11 -449 -7 -609 -6 -613 6 -2 5 -8 10 -13 10 -6 0 -7 -88 -3 -225 6
-178 5 -225 -5 -225 -8 0 -11 -7 -7 -16 4 -10 -1 -25 -10 -35 -9 -10 -13 -23
-9 -28 3 -6 -1 -11 -9 -11 -8 0 -16 -12 -19 -27 -2 -16 -5 17 -7 72 -1 55 -6
147 -10 205 -7 82 -8 61 -5 -97 2 -125 0 -203 -6 -203 -5 0 -7 -12 -4 -27 5
-20 4 -24 -3 -13 -5 8 -12 112 -16 230 -3 118 -11 334 -16 480 -10 258 -39
1312 -60 2150 -5 228 -13 510 -16 626 l-6 211 -542 7 c-297 3 -655 9 -793 13
-147 3 -253 2 -254 -3z m1419 -120 c7 -2 10 -8 7 -14 -3 -5 1 -10 9 -10 9 0
16 -6 16 -14 0 -8 8 -17 17 -20 27 -11 -5 -26 -39 -19 -21 4 -28 2 -28 -11 0
-11 -9 -16 -30 -16 -22 0 -28 4 -24 15 7 16 -1 18 -56 15 -19 -1 -38 -6 -41
-12 -4 -5 -9 -3 -12 5 -4 11 -14 13 -39 8 -55 -12 -68 -4 -68 38 0 21 2 40 5
43 6 5 263 -1 283 -8z m5647 -1539 c-1 -80 1 -145 5 -145 4 0 10 45 13 100 4
63 12 110 22 127 15 26 16 11 10 -207 -3 -129 -10 -332 -15 -450 -10 -222 -36
-849 -47 -1142 -3 -92 -9 -166 -12 -164 -3 2 -5 -44 -4 -102 l1 -107 -10 75
c-8 55 -8 102 1 176 7 56 12 140 11 185 -2 46 0 147 3 224 8 175 -6 263 -16
110 -4 -55 -10 -165 -13 -245 -4 -80 -7 -163 -8 -185 -1 -22 -3 -75 -4 -118
-1 -43 -5 -76 -9 -74 -5 3 -9 -38 -10 -91 -2 -54 -7 -140 -11 -192 l-9 -95 -1
70 c-1 39 3 196 8 350 11 324 26 772 40 1235 9 285 29 757 33 785 2 8 16 24
23 25 1 0 0 -65 -1 -145z m-1447 95 l12 25 -1 -30 c-3 -92 2 -135 15 -135 8 0
13 11 13 28 0 15 3 34 6 42 4 8 8 33 10 55 8 84 6 -298 -3 -695 -6 -228 -14
-604 -19 -835 -10 -444 -18 -588 -32 -579 -13 8 -11 154 2 154 7 0 9 32 6 103
-3 56 -6 154 -7 217 -2 209 -18 85 -26 -197 -4 -147 -10 -279 -13 -291 -4 -13
-5 37 -3 112 3 93 1 136 -7 136 -6 0 -12 -38 -14 -102 -6 -143 2 385 13 942
17 858 24 1085 30 1055 l7 -30 11 25z m1673 -89 l2 -106 7 80 c4 44 15 94 24
110 l16 30 0 -70 c0 -38 -5 -171 -10 -295 -5 -124 -14 -351 -20 -505 -6 -154
-15 -374 -20 -490 -5 -115 -14 -345 -20 -510 -15 -390 -29 -524 -24 -235 2
118 6 224 9 235 3 11 2 49 -3 85 -6 38 -6 154 -1 280 14 371 17 576 8 553 -4
-13 -10 -94 -13 -180 -9 -331 -28 -678 -37 -681 -5 -2 -9 -10 -9 -18 0 -9 5
-12 12 -8 7 5 8 3 3 -6 -4 -7 -9 -54 -11 -105 -2 -50 -8 -149 -14 -220 -5 -70
-10 -142 -10 -158 0 -17 -3 -28 -6 -25 -3 4 -1 127 5 275 13 341 22 585 46
1363 9 259 24 589 31 657 5 46 10 60 20 56 11 -4 14 -32 15 -112z m-125 94 c8
-8 14 -25 13 -37 -3 -35 3 -186 7 -163 2 11 6 56 9 99 5 56 10 75 17 65 7 -10
8 -8 5 8 -3 13 0 26 5 29 11 7 5 -330 -12 -686 -16 -308 -40 -936 -40 -1035
-1 -49 -6 -146 -11 -215 -6 -69 -12 -150 -12 -180 -1 -30 -3 -45 -5 -32 -2 12
-7 22 -11 22 -4 0 -7 34 -8 75 -1 41 1 75 5 75 4 0 8 109 9 243 2 133 7 348
13 477 10 245 13 446 6 439 -3 -2 -7 -85 -11 -184 -3 -99 -10 -274 -16 -390
-12 -267 -29 -672 -29 -707 0 -16 -3 -28 -7 -28 -18 0 -2 914 27 1575 5 121
12 298 16 393 3 94 8 172 11 172 2 0 11 -7 19 -15z m227 -137 c-2 -84 -8 -227
-13 -318 -4 -95 -4 -169 1 -174 5 -6 9 23 9 70 0 93 18 434 26 482 3 18 9 30
14 27 5 -3 10 5 12 17 12 71 -5 -387 -57 -1557 -8 -187 -15 -375 -15 -417 0
-63 -3 -78 -15 -78 -8 0 -15 7 -15 15 0 8 5 15 11 15 8 0 10 43 7 144 -2 80 0
139 4 133 5 -7 8 -8 8 -1 0 5 -5 15 -10 20 -7 7 -5 147 5 425 14 390 18 657
10 634 -2 -5 -11 -156 -19 -335 -23 -482 -29 -629 -27 -685 1 -36 -2 -46 -9
-35 -7 11 -10 -5 -10 -55 0 -38 -4 -88 -10 -110 -10 -45 -6 175 10 615 46
1207 50 1304 64 1312 6 4 14 8 18 8 3 0 4 -69 1 -152z m-2168 126 c13 5 14
-35 10 -322 -7 -426 -26 -1116 -31 -1121 -2 -2 -4 18 -4 46 0 60 -9 113 -20
113 -10 0 -19 -73 -10 -80 10 -8 -1 -170 -12 -170 -6 0 -9 33 -8 83 2 45 1
105 -1 132 -2 28 -6 -58 -10 -190 -3 -132 -5 35 -3 370 2 336 7 732 11 881 l6
272 29 -10 c15 -6 35 -7 43 -4z m74 -170 c0 -97 2 -178 5 -182 3 -3 6 35 6 84
1 124 8 186 21 195 6 4 9 11 5 17 -3 6 -2 14 4 17 8 5 9 -35 6 -132 -3 -76 -9
-381 -12 -678 -6 -525 -18 -918 -23 -740 -2 75 -3 78 -16 55 -10 -17 -15 -20
-16 -10 -1 8 -5 -10 -9 -40 l-7 -55 -3 65 c-2 59 -3 62 -11 30 -8 -36 -4 653
8 1223 6 308 7 327 25 327 17 0 18 -12 17 -176z m450 -59 c3 81 16 183 21 155
1 -8 6 -1 11 15 5 17 6 -117 4 -314 -2 -203 -8 -348 -14 -354 -6 -6 -6 -16 1
-27 8 -12 8 -119 -1 -381 -6 -200 -11 -423 -11 -495 0 -110 -2 -131 -15 -131
-17 0 -20 27 -16 126 2 41 0 61 -7 57 -9 -6 -18 -128 -27 -386 -5 -137 -9
-178 -20 -188 -13 -12 13 1793 30 2058 3 50 10 87 18 92 9 6 13 -29 17 -150 4
-108 7 -132 9 -77z m92 211 c5 3 4 -7 -3 -21 -10 -22 -9 -28 3 -36 23 -14 27
-11 33 24 6 41 -2 -624 -11 -880 -5 -160 -9 -193 -21 -193 -15 0 -13 -35 3
-74 6 -14 5 -17 -3 -12 -18 11 -15 -23 3 -41 12 -12 14 -37 11 -136 -3 -67 -8
-258 -12 -424 -4 -167 -10 -303 -13 -303 -3 0 -4 129 -3 287 2 159 2 286 -1
283 -2 -3 -7 -102 -11 -220 -3 -118 -10 -242 -15 -276 -5 -33 -7 -72 -4 -87 3
-16 1 -27 -6 -27 -7 0 -11 -31 -11 -92 0 -50 -3 -89 -6 -86 -3 3 0 248 6 544
6 297 15 755 20 1019 10 490 21 794 28 762 2 -9 8 -15 13 -11z m1698 -401
c-30 -727 -40 -929 -48 -940 -5 -5 -7 -59 -6 -118 2 -60 -1 -121 -6 -135 -5
-16 -7 64 -4 203 10 469 18 666 28 672 5 3 5 8 -2 12 -8 5 -8 50 -1 162 5 85
11 225 14 311 4 86 10 167 15 180 5 13 12 36 16 52 3 15 7 27 9 25 1 -2 -6
-193 -15 -424z m-839 400 c11 -13 11 -56 1 -253 -6 -130 -11 -289 -11 -353 0
-85 -3 -118 -12 -120 -7 -2 -108 -4 -225 -4 -156 0 -215 3 -224 12 -10 10 -11
56 -1 225 7 117 12 272 12 344 0 137 3 148 45 156 11 2 106 5 211 7 166 2 192
1 204 -14z m799 -150 c0 -60 -6 -236 -14 -390 -8 -154 -17 -341 -20 -415 -8
-182 -27 -574 -31 -630 -2 -25 -4 -63 -4 -85 0 -28 -2 -36 -9 -26 -7 11 -10
10 -14 -5 -2 -10 -2 22 0 71 2 50 10 293 18 540 18 530 44 1074 52 1095 11 27
21 -41 22 -155z m-1461 138 c-22 -5 -22 -12 -3 -37 11 -14 15 -49 17 -115 l1
-96 7 95 c8 114 18 162 32 154 10 -7 7 -192 -17 -1139 -21 -783 -29 -1047 -33
-992 -2 26 -6 47 -10 47 -4 0 -8 35 -8 78 -1 47 2 69 7 57 7 -18 8 -17 8 7 1
14 -3 28 -8 30 -6 2 -7 143 -2 361 6 296 10 360 22 368 10 6 10 9 2 9 -19 0
-16 31 5 46 29 22 2 38 -34 19 -38 -19 -74 -19 -74 0 0 11 12 15 45 15 25 0
45 5 45 10 0 6 -12 10 -27 10 l-26 0 7 413 c3 226 9 469 13 540 6 121 7 127
27 126 17 -1 18 -2 4 -6z m111 -46 c-6 -9 -6 -23 -2 -30 4 -6 11 -59 14 -117
l5 -105 2 115 c1 63 7 122 13 130 8 12 10 10 6 -10 -3 -14 -1 -34 4 -45 8 -17
9 -17 5 5 -3 14 -1 32 5 40 7 10 8 -49 5 -185 -3 -110 -8 -317 -11 -460 -3
-143 -10 -402 -15 -575 -5 -173 -12 -423 -16 -555 -5 -182 -10 -242 -20 -253
-16 -16 -17 -7 -14 173 1 71 6 113 13 117 9 6 9 10 1 16 -7 4 -14 18 -17 32
-2 14 -5 -11 -6 -56 -2 -117 -13 -234 -21 -229 -4 3 -8 -10 -8 -28 -1 -17 -6
-59 -11 -92 -8 -47 -9 -17 -6 135 3 107 9 404 15 660 18 861 31 1335 37 1353
5 18 5 18 18 0 9 -12 10 -23 4 -36z m1452 -13 c5 -7 7 -70 4 -150 -19 -465
-39 -850 -50 -979 -3 -33 -6 -109 -6 -170 -1 -92 -2 -101 -9 -55 -7 53 -7 54
-10 15 -3 -39 -3 -39 -7 -7 -3 18 0 39 6 46 7 8 9 40 5 87 -9 102 28 1131 43
1239 6 39 7 41 11 15 2 -16 8 -35 13 -41z m-2040 -644 c-6 -267 -14 -622 -18
-790 -4 -207 -9 -296 -15 -277 -6 15 -14 27 -18 27 -11 0 -1 71 11 84 5 6 9
30 8 55 -1 39 -2 42 -10 21 -8 -23 -8 -22 -5 8 1 17 -1 32 -4 32 -9 0 -20 -61
-20 -110 0 -28 -3 -32 -11 -20 -8 11 -9 4 -5 -27 4 -24 2 -44 -4 -48 -21 -13
-1 1685 20 1708 4 5 10 -11 14 -35 10 -62 26 -84 26 -33 0 39 13 40 23 0 4
-14 6 -10 5 10 0 17 1 46 3 65 9 101 9 -243 0 -670z m420 178 c-7 -282 -14
-521 -17 -530 -7 -25 -21 -22 -30 5 l-7 22 -10 -22 c-5 -12 -16 -24 -25 -28
-14 -5 -15 28 -9 307 4 172 10 410 13 529 7 211 8 216 28 211 19 -5 19 -6 0
-13 -18 -6 -18 -7 -1 -14 14 -6 17 -22 18 -114 l2 -106 8 123 c5 74 13 128 21
136 7 8 15 12 17 10 2 -2 -2 -234 -8 -516z m774 380 c-19 -667 -27 -904 -36
-1098 -5 -124 -13 -330 -16 -457 -5 -187 -9 -233 -19 -233 -9 0 -14 11 -13 33
1 30 1 31 9 7 8 -24 8 -23 9 8 1 23 -3 31 -10 26 -9 -5 -10 73 -5 307 4 173 9
346 11 384 4 63 3 65 -4 19 -5 -28 -14 -203 -21 -390 -6 -186 -15 -354 -20
-371 -5 -18 -6 -42 -3 -53 9 -33 -8 -278 -18 -255 -8 21 -5 311 12 980 5 209
9 408 9 441 0 58 2 62 25 66 13 3 26 0 28 -6 2 -6 7 88 11 209 6 189 12 266
31 450 2 17 4 38 4 48 1 9 5 17 10 17 6 0 8 -55 6 -132z m41 106 c-3 -8 0 -13
7 -11 9 1 12 -20 10 -78 l-2 -80 10 65 c18 125 20 130 34 130 12 0 14 -18 10
-102 -3 -57 -7 -195 -10 -308 -5 -215 -18 -580 -35 -985 -5 -132 -10 -270 -10
-307 0 -56 -3 -66 -15 -62 -8 4 -15 1 -15 -5 0 -6 6 -11 14 -11 12 0 13 -14 9
-72 -2 -40 -8 -156 -12 -258 l-8 -185 -4 120 c-3 118 -3 205 2 315 1 31 -3 65
-9 75 -10 18 -12 17 -13 -10 -1 -16 -3 -39 -4 -50 -1 -11 -2 -47 -3 -80 -2
-46 -5 -56 -13 -45 -8 12 -9 9 -5 -12 3 -14 9 -34 12 -45 5 -15 4 -16 -6 -3
-9 12 -10 5 -6 -30 3 -25 -1 -72 -9 -105 -14 -57 -14 -50 -9 135 2 107 9 319
14 470 5 151 14 457 20 680 8 353 18 643 25 760 1 19 3 54 4 78 1 28 5 41 12
37 6 -4 8 -13 5 -21z m127 -86 c0 -93 14 -64 16 35 1 42 5 57 15 57 8 0 17 6
20 13 4 6 4 -62 1 -153 -21 -654 -35 -1054 -40 -1110 -3 -36 -10 -209 -15
-385 -10 -330 -20 -538 -26 -532 -2 1 -5 63 -7 137 -2 77 0 118 4 95 6 -33 7
-31 3 15 -2 30 -6 73 -9 95 -2 22 -2 46 0 54 3 7 7 190 8 405 4 403 -1 375
-22 -139 -18 -445 -21 -492 -36 -580 l-14 -90 5 205 c2 113 6 275 9 360 3 85
10 310 15 500 20 685 30 967 36 1049 5 75 8 82 21 68 11 -11 16 -38 16 -99z
m83 -205 c-4 -170 -9 -346 -11 -393 -2 -47 -7 -168 -10 -270 -11 -388 -28
-746 -37 -760 -11 -19 6 642 37 1380 18 445 31 470 21 43z m-1555 -305 c-6
-310 -13 -711 -16 -893 -5 -300 -13 -482 -20 -473 -1 2 -5 26 -8 53 -4 32 -3
43 3 30 5 -13 8 24 8 100 0 73 -3 110 -8 95 -4 -14 -8 119 -9 294 -1 176 -3
322 -6 324 -3 3 -5 -94 -5 -215 0 -166 -4 -230 -14 -261 -11 -30 -12 -50 -5
-74 11 -41 11 -116 -2 -143 -7 -16 -8 -13 -4 11 3 16 1 41 -4 55 -7 17 -10
-43 -12 -201 -1 -124 -4 -214 -6 -200 -5 25 13 1351 24 1791 5 227 8 257 22
254 13 -1 17 -21 22 -101 l5 -99 2 83 c1 58 7 93 19 113 9 15 19 27 21 24 2
-2 -1 -257 -7 -567z m2194 227 c-4 -115 -8 -239 -11 -275 -2 -36 -4 -93 -4
-127 0 -48 -3 -63 -14 -63 -10 0 -16 -13 -19 -37 -10 -97 -6 67 8 297 8 135
16 288 18 340 6 126 6 130 19 100 6 -16 8 -98 3 -235z m-6503 -116 c10 -70 9
-229 -2 -229 -5 0 -19 20 -31 45 -22 46 -70 95 -94 95 -7 0 -23 16 -35 35 -41
66 -77 65 -128 -5 -34 -46 -43 -38 -40 38 l3 67 140 5 c77 3 149 2 160 -1 14
-5 22 -18 27 -50z m-380 -48 c6 -71 4 -107 -7 -145 -8 -28 -14 -71 -13 -96 1
-25 0 -83 -2 -130 -2 -47 0 -91 4 -98 4 -8 5 -16 2 -20 -11 -10 -267 -15 -276
-6 -5 5 -11 101 -15 214 -3 113 -8 226 -11 252 -3 26 -3 66 1 88 l7 41 151 -3
152 -3 7 -94z m5505 -161 l33 0 0 -87 c0 -49 -5 -200 -10 -338 -5 -137 -10
-411 -11 -607 -1 -200 -5 -355 -10 -352 -5 3 -9 12 -9 20 0 8 -5 12 -11 8 -8
-4 -9 121 -5 447 4 249 5 451 2 448 -2 -2 -7 -130 -10 -284 -7 -330 -15 -455
-27 -455 -12 0 -11 -47 1 -55 6 -3 9 -27 9 -53 l-2 -47 -7 40 c-4 22 -8 34 -9
26 0 -8 -4 -11 -8 -8 -6 7 -5 505 2 707 2 52 6 211 10 353 6 182 11 255 18
248 6 -6 26 -11 44 -11z m93 -11 c0 -8 5 -7 15 1 10 8 19 10 25 4 6 -6 6 -135
0 -344 -6 -184 -15 -481 -20 -660 -5 -179 -10 -356 -11 -395 l-1 -70 -10 55
c-11 59 -12 318 -2 770 4 157 4 282 0 279 -3 -3 -10 -176 -16 -385 -11 -427
-17 -585 -25 -592 -22 -22 -24 83 -14 540 17 764 19 808 40 808 11 0 19 -5 19
-11z m112 -21 l1 -33 4 33 c3 24 9 32 24 32 23 0 22 35 9 -352 -28 -907 -33
-1034 -40 -1041 -4 -5 -11 13 -15 39 -4 32 -3 50 4 52 6 2 11 10 11 18 0 9 -5
12 -11 8 -8 -4 -9 110 -4 402 4 225 5 407 3 404 -5 -4 -10 -140 -24 -595 -11
-356 -14 -393 -30 -330 -7 29 0 475 16 1025 5 173 9 327 9 343 1 20 6 27 21
27 16 0 20 -7 22 -32z m153 -55 c-3 -49 -10 -232 -15 -408 -6 -176 -15 -428
-20 -560 -6 -132 -10 -257 -10 -278 0 -21 -4 -36 -9 -33 -14 9 -13 273 2 298
7 13 8 22 2 24 -6 3 -10 93 -9 246 1 270 -9 194 -20 -162 -4 -107 -13 -226
-21 -265 -18 -85 -19 -119 -4 -109 8 4 9 -1 3 -17 -5 -13 -9 -38 -9 -56 0 -17
-3 -29 -7 -27 -3 2 -9 -2 -12 -8 -3 -7 -4 -4 -2 7 3 11 7 135 10 275 4 140 8
311 11 380 3 69 7 215 10 325 3 110 8 257 11 328 l6 127 44 0 45 0 -6 -87z
m-671 -690 c-4 -170 -8 -310 -10 -312 -1 -1 -8 0 -14 4 -8 5 -8 11 1 21 9 11
8 21 -1 45 -10 23 -12 84 -6 262 4 128 11 236 16 241 6 6 10 18 10 28 0 10 2
18 5 18 4 0 3 -138 -1 -307z m62 -55 c-4 -199 -11 -367 -15 -372 -5 -6 -12
-29 -15 -51 -5 -29 -4 -34 3 -20 8 17 10 13 10 -18 1 -21 -3 -36 -8 -32 -5 3
-12 -7 -15 -22 -2 -16 -3 123 0 307 2 184 4 388 4 453 0 113 1 117 22 117 l21
0 -7 -362z m-104 290 c2 -24 0 -115 -4 -203 -4 -88 -10 -216 -12 -285 -2 -69
-5 -152 -7 -185 -3 -58 -3 -58 -9 25 -7 80 -7 78 -6 -38 1 -67 -2 -122 -6
-122 -4 0 -9 -15 -11 -32 -3 -18 -3 14 -1 72 2 58 6 258 10 445 3 187 7 346
10 353 2 6 10 12 18 12 10 0 16 -13 18 -42z m-2464 -325 c2 -20 5 -39 7 -43 2
-4 -16 -4 -40 0 -24 4 -42 3 -39 -2 3 -4 16 -8 29 -8 34 0 55 -10 55 -27 0 -8
4 -12 8 -9 4 2 13 1 20 -3 7 -4 1 -11 -18 -18 -17 -6 -28 -7 -24 -2 3 5 -1 9
-8 10 -10 0 -10 2 0 6 16 6 15 20 -2 20 -9 0 -13 -9 -11 -23 2 -19 -1 -22 -14
-15 -10 6 -26 4 -44 -6 -16 -8 -27 -10 -23 -5 3 5 -6 20 -19 32 -14 13 -25 20
-25 15 0 -5 -3 -6 -6 -3 -3 4 0 16 6 28 7 13 7 20 2 16 -6 -3 -13 0 -16 6 -3
7 -3 3 0 -9 7 -31 -4 -29 -16 2 -5 14 -13 25 -17 24 -5 -1 -15 0 -23 1 -8 2 3
6 25 10 39 7 38 7 -17 9 -36 0 -58 -3 -60 -11 -3 -7 -7 -6 -11 5 -5 14 1 17
41 19 150 6 202 5 202 -4 0 -5 -4 -6 -10 -3 -5 3 -10 -1 -10 -9 0 -8 -6 -16
-12 -19 -7 -2 1 -2 17 1 35 5 51 17 36 26 -15 10 -14 26 2 26 8 0 14 -15 15
-37z m-2708 -94 c0 -7 -8 -18 -17 -25 -16 -11 -16 -16 -4 -35 l13 -22 -70 6
c-48 5 -73 3 -78 -4 -4 -8 -9 -7 -15 2 -6 11 -11 11 -21 1 -7 -7 -41 -12 -88
-12 -52 0 -70 -3 -60 -10 12 -8 12 -10 -5 -10 -18 -1 -18 -2 3 -10 12 -5 22
-12 22 -15 0 -3 -10 -5 -22 -5 -15 1 -33 15 -50 41 -16 21 -28 43 -28 48 0 4
-9 16 -20 26 -11 10 -17 22 -14 26 8 14 454 11 454 -2z m-4045 -679 c5 -8 11
-8 20 0 9 7 15 8 20 1 3 -7 28 -8 64 -4 54 5 60 4 71 -17 15 -28 7 -86 -16
-111 -15 -17 -15 -19 0 -25 20 -8 21 -40 1 -48 -8 -3 -14 -11 -13 -18 2 -8
-10 -14 -31 -16 -25 -3 -31 -6 -20 -13 11 -7 9 -9 -8 -9 -13 0 -23 5 -23 10 0
6 -7 10 -16 10 -8 0 -12 -4 -9 -10 3 -5 -1 -10 -9 -10 -9 0 -18 11 -22 25 -3
14 -11 22 -16 19 -13 -8 -1 33 18 64 14 21 13 23 -8 32 -13 5 -19 9 -14 9 5 1
4 7 -2 14 -8 10 -17 72 -13 100 1 11 19 9 26 -3z m5129 -141 c11 -11 24 -134
15 -145 -9 -11 -291 -18 -1311 -31 l-528 -6 0 47 c0 31 7 58 23 81 l22 35 155
1 c284 2 1343 20 1347 23 6 4 272 0 277 -5z"/>
<path d="M9903 2950 c-13 -5 -23 -13 -23 -17 0 -12 151 -183 161 -183 5 0 14
12 19 26 41 107 -57 214 -157 174z"/>
<path d="M9831 2867 c-37 -97 41 -194 139 -172 17 4 30 12 30 18 -1 7 -36 50
-80 97 l-78 85 -11 -28z"/>
<path d="M5214 4413 c3 -120 11 -427 16 -683 6 -256 15 -643 20 -860 6 -217
12 -516 15 -665 3 -148 8 -321 11 -384 l6 -113 117 6 c64 3 323 8 576 11 858
9 1429 16 1589 20 l159 4 38 -57 c20 -31 35 -60 32 -64 -2 -5 -25 -8 -51 -9
-35 0 -42 -3 -27 -9 11 -5 37 -9 58 -9 20 -1 37 -5 37 -11 0 -5 12 -7 28 -5
24 5 100 12 144 14 10 1 17 6 15 13 -1 7 3 12 9 13 35 1 107 105 74 105 -5 0
-10 9 -10 19 0 22 -49 39 -60 20 -4 -6 -12 -9 -18 -5 -12 7 -27 -11 -34 -41
-4 -16 -2 -20 9 -16 13 5 13 3 1 -16 -11 -19 -11 -23 4 -32 10 -5 14 -17 11
-30 -4 -16 -12 -19 -37 -17 l-31 3 1 85 c0 47 4 551 8 1119 4 569 10 1039 12
1043 3 4 271 8 595 8 553 0 590 -1 595 -17 3 -10 10 -26 15 -35 5 -10 6 -24 3
-32 -4 -10 5 -20 28 -29 36 -16 58 -7 58 23 0 10 6 20 14 23 8 3 16 18 18 34
2 23 8 28 33 29 79 4 1015 16 1050 14 22 -2 48 -3 58 -3 9 -1 17 -7 17 -14 0
-7 -7 -10 -15 -7 -14 6 -21 -8 -15 -31 2 -5 6 -23 9 -39 5 -22 14 -32 36 -37
31 -9 59 6 51 26 -2 7 5 20 16 29 20 18 20 53 0 49 -7 -2 -12 3 -12 10 0 15
56 17 482 21 l226 2 -5 -33 c-3 -19 -1 -33 4 -33 6 0 8 -11 5 -25 -3 -20 0
-25 16 -25 12 0 24 -5 27 -10 9 -15 48 9 41 26 -3 7 2 17 11 22 11 7 14 19 11
40 -2 17 -1 29 4 26 4 -3 14 -2 21 3 17 11 128 13 148 2 12 -6 19 -5 22 4 3 6
6 2 6 -10 1 -14 -5 -23 -14 -23 -22 0 -18 -28 5 -42 11 -7 20 -21 20 -32 0
-14 5 -17 23 -12 12 3 30 6 41 6 15 0 17 6 14 30 -3 17 -1 30 4 30 4 0 8 9 8
20 0 29 26 37 124 38 107 1 142 8 150 28 5 14 -92 15 -906 9 -502 -4 -1389 -9
-1970 -12 -1003 -6 -1058 -5 -1058 12 0 12 -5 15 -17 10 -10 -4 -28 -10 -41
-12 -36 -8 -37 -24 0 -19 33 5 33 5 -9 -16 l-43 -22 -1 -160 c0 -89 -4 -251
-7 -361 -4 -110 -6 -414 -4 -675 2 -261 0 -590 -5 -730 l-8 -255 -5 440 c-4
345 -8 439 -17 438 -7 -2 -13 4 -13 12 0 8 -4 15 -10 15 -11 0 -13 -15 -12
-70 0 -19 -2 -27 -4 -17 -3 9 -9 15 -13 13 -4 -3 -7 467 -7 1043 l1 1049 -695
6 c-382 3 -951 8 -1263 12 l-569 5 6 -218z m466 -544 c5 -200 12 -569 15 -819
4 -250 8 -461 11 -468 3 -9 20 -13 51 -12 75 3 83 1 83 -16 0 -15 -9 -16 -72
-9 -40 3 -74 7 -74 8 -1 1 -5 124 -8 272 -4 149 -9 295 -11 325 -7 89 -17
1096 -11 1089 3 -3 10 -169 16 -370z m-36 49 c3 -167 8 -370 11 -453 3 -82 7
-327 11 -543 l6 -394 -24 7 c-12 4 -24 12 -26 16 -2 5 -20 9 -40 10 l-37 1 34
11 33 11 -6 140 c-3 78 -9 386 -12 686 -6 484 -5 554 10 624 9 43 16 105 16
138 0 32 4 57 9 54 4 -3 11 -142 15 -308z m1768 -287 c3 -66 -6 -331 -10 -302
-2 11 -5 11 -17 1 -8 -7 -24 -10 -35 -7 -11 3 -20 1 -20 -4 0 -5 18 -9 40 -9
l39 0 3 -162 c2 -90 0 -165 -4 -168 -4 -3 -54 -5 -110 -4 -57 1 -164 3 -240 3
l-136 1 -1 360 -1 360 244 0 244 0 4 -69z m-1334 -126 c-1 -46 10 -721 19
-1115 3 -115 1 -160 -6 -150 -6 8 -11 73 -11 147 l0 132 -37 3 c-36 3 -38 5
-38 38 0 29 4 36 24 38 l24 4 -6 338 c-4 187 -7 343 -8 347 -1 4 -1 59 0 121
1 73 5 111 11 107 6 -3 10 1 10 9 0 8 -5 18 -10 21 -9 6 -4 48 8 70 9 15 22
-54 20 -110z m266 -915 c4 -4 11 -423 7 -458 -1 -9 -14 -12 -43 -10 l-43 3 -8
63 c-6 43 -13 62 -23 62 -8 0 -15 8 -15 18 -1 16 -2 16 -6 0 -5 -21 -29 -24
-36 -5 -10 27 -8 307 2 307 11 0 17 -107 12 -211 -2 -54 -1 -57 24 -61 l26 -6
-1 132 c-2 169 -3 164 18 168 23 5 80 4 86 -2z m-798 -327 c10 -14 13 -73 12
-263 -1 -135 -3 -219 -5 -187 -5 81 -23 71 -23 -13 0 -61 -2 -70 -18 -70 -17
0 -20 12 -25 113 -4 61 -7 144 -7 184 0 40 -5 84 -12 98 -9 19 -9 28 0 37 7 7
12 17 12 23 0 5 -5 3 -10 -5 -15 -23 -12 4 4 35 9 17 16 22 19 13 3 -7 6 -4 6
8 1 18 18 44 29 44 3 0 11 -8 18 -17z"/>
<path d="M8198 1357 c5 -63 29 -92 77 -92 26 -1 36 4 44 22 6 13 16 23 23 23
9 0 9 3 0 12 -7 7 -12 25 -12 41 0 22 -4 28 -15 23 -18 -7 -20 10 -2 17 6 3
-7 5 -31 5 -24 -1 -45 -5 -48 -10 -3 -4 -13 -4 -23 2 -16 8 -18 5 -13 -43z"/>
<path d="M12080 1190 c-36 -32 -36 -100 0 -100 10 0 21 -7 24 -15 7 -19 47
-16 68 5 15 15 30 70 19 68 -19 -2 -31 3 -26 12 3 5 1 18 -4 29 -13 24 -54 24
-81 1z"/>
<path d="M11830 1057 c0 -13 -33 -31 -52 -28 -4 0 -6 -17 -5 -38 1 -22 -1 -37
-5 -35 -5 3 -8 1 -8 -5 0 -5 5 -13 10 -16 6 -3 10 -15 10 -26 0 -20 15 -26 25
-9 4 6 16 8 27 4 13 -4 24 -1 29 7 7 11 9 10 9 -4 0 -16 2 -17 15 -3 18 18 20
62 3 69 -10 4 -10 6 0 6 7 1 12 14 12 32 0 27 -3 31 -21 26 -16 -4 -19 -2 -14
11 3 9 3 13 -1 9 -4 -4 -13 -2 -21 4 -10 9 -13 8 -13 -4z"/>
</g>
</svg>
